<svg width="22" height="22" viewBox="0 0 22 22" fill="none" xmlns="http://www.w3.org/2000/svg">
<path d="M21.4231 16.1458L18.3465 13.0756C17.2477 11.9791 15.3797 12.4178 14.9402 13.8431C14.6106 14.83 13.5118 15.3783 12.5229 15.1589C10.3253 14.6107 7.35853 11.7598 6.80913 9.4572C6.47949 8.47031 7.13877 7.37383 8.12768 7.04493C9.55612 6.60633 9.99563 4.7423 8.89684 3.64582L5.82021 0.575655C4.94118 -0.191885 3.62262 -0.191885 2.85347 0.575655L0.765758 2.65898C-1.32195 4.85195 0.985517 10.6633 6.14985 15.8168C11.3142 20.9703 17.1378 23.3826 19.3354 21.1896L21.4231 19.1063C22.1923 18.2291 22.1923 16.9133 21.4231 16.1458Z" fill="#EAF1FF"/>
</svg>
