<svg width="17" height="23" viewBox="0 0 17 23" fill="none" xmlns="http://www.w3.org/2000/svg">
<path d="M11.9191 8.76904C13.3869 7.43083 15.3718 5.62096 15.5527 1.29718H16.8633V0H0V1.29718H1.31054C1.49145 5.62096 3.47639 7.43083 4.94418 8.76904C5.92878 9.66672 6.48588 10.2162 6.48588 11.0692C6.48588 11.9223 5.92878 12.4717 4.94418 13.3694C3.47639 14.7076 1.49145 16.5175 1.31054 20.8413H0V22.1385H16.8633V20.8413H15.5527C15.3718 16.5175 13.3869 14.7076 11.9191 13.3694C10.9345 12.4717 10.3774 11.9223 10.3774 11.0692C10.3774 10.2162 10.9345 9.66672 11.9191 8.76904ZM7.78305 15.931C7.58273 15.9723 7.38482 16.0324 7.19167 16.1123L3.21898 17.7563C3.86774 16.1067 4.91266 15.1536 5.81814 14.328C6.82863 13.4067 7.78305 12.5366 7.78305 11.0692V15.931ZM11.0451 14.328C11.9506 15.1536 12.9955 16.1067 13.6443 17.7562L9.67161 16.1123C9.47846 16.0324 9.28056 15.9723 9.08023 15.9309V11.0692C9.08023 12.5366 10.0346 13.4067 11.0451 14.328ZM3.1962 4.32392C2.88258 3.50674 2.666 2.52007 2.60931 1.29718H14.2539C14.1972 2.52007 13.9807 3.50674 13.667 4.32392H3.1962Z" fill="#EAF1FF"/>
</svg>
