<svg width="17" height="22" viewBox="0 0 17 22" fill="none" xmlns="http://www.w3.org/2000/svg">
<path d="M16.3735 3.06394H11.3575V0.646528C11.3575 0.289472 11.077 0 10.731 0H6.26899C5.92301 0 5.64251 0.289472 5.64251 0.646528V3.06394H0.626473C0.280493 3.06394 0 3.35341 0 3.71047V6.31416C0 6.67122 0.280493 6.96069 0.626473 6.96069H0.739196L1.66992 21.3964C1.69181 21.736 1.96516 22 2.29502 22H14.705C15.0348 22 15.3081 21.736 15.3301 21.3964L16.2608 6.96069H16.3735C16.7195 6.96069 17 6.67122 17 6.31416V3.71047C17 3.35341 16.7195 3.06394 16.3735 3.06394ZM6.89546 1.29306H10.1045V3.06394H6.89546V1.29306ZM1.25295 4.35699H15.747V5.66763H1.25295V4.35699ZM14.1188 20.7069H2.88119L1.99494 6.96069H15.0051L14.1188 20.7069Z" fill="#EAF0FF"/>
<path d="M6.3365 11.3564C6.83797 10.8388 7.50475 10.5538 8.21395 10.5538C8.92316 10.5538 9.5899 10.8388 10.0914 11.3564C10.4247 11.7003 10.6579 12.1202 10.7772 12.5772C10.5319 12.3889 10.184 12.409 9.96144 12.6387C9.71678 12.8911 9.71678 13.3005 9.96139 13.553L11.0525 14.679C11.17 14.8003 11.3293 14.8684 11.4955 14.8684C11.6616 14.8684 11.8209 14.8003 11.9385 14.679L13.0296 13.553C13.2742 13.3005 13.2742 12.8912 13.0295 12.6387C12.7849 12.3862 12.3882 12.3862 12.1436 12.6387L12.0803 12.704C11.9597 11.8505 11.5786 11.0624 10.9773 10.442C10.2392 9.68021 9.25783 9.2607 8.21395 9.2607C7.17008 9.2607 6.18869 9.68021 5.45058 10.442C5.20593 10.6944 5.20593 11.1038 5.45058 11.3563C5.6952 11.6088 6.09188 11.6088 6.3365 11.3564Z" fill="#EAF0FF"/>
<path d="M4.85266 15.0289L4.91602 14.9636C5.03659 15.8171 5.41765 16.6052 6.01894 17.2257C6.75705 17.9874 7.73844 18.4069 8.78231 18.4069C9.82618 18.4069 10.8076 17.9874 11.5457 17.2257C11.7903 16.9732 11.7903 16.5638 11.5457 16.3113C11.3011 16.0589 10.9044 16.0589 10.6597 16.3113C10.1583 16.8289 9.49148 17.1139 8.78227 17.1139C8.0731 17.1139 7.40633 16.8289 6.90486 16.3113C6.57157 15.9674 6.33832 15.5475 6.21899 15.0904C6.32946 15.1752 6.46048 15.2183 6.59183 15.2183C6.75216 15.2183 6.9125 15.1552 7.03483 15.029C7.27944 14.7765 7.27944 14.3671 7.03483 14.1146L5.94372 12.9887C5.69911 12.7362 5.30242 12.7362 5.05777 12.9887L3.9667 14.1146C3.72204 14.3671 3.72204 14.7765 3.96666 15.029C4.2114 15.2815 4.60804 15.2814 4.85266 15.0289Z" fill="#EAF0FF"/>
</svg>
