<svg width="16" height="22" viewBox="0 0 16 22" fill="none" xmlns="http://www.w3.org/2000/svg">
<path d="M8 0C3.58854 0 0 3.6238 0 8.07767C0 14.0369 7.38108 21.1197 7.69533 21.4186C7.78125 21.4997 7.89062 21.5405 8 21.5405C8.10938 21.5405 8.21875 21.4997 8.30471 21.4186C8.61892 21.1197 16 14.0369 16 8.07767C16 3.6238 12.4115 0 8 0ZM8 12.5653C5.54946 12.5653 3.55554 10.552 3.55554 8.07767C3.55554 5.60334 5.5495 3.59006 8 3.59006C10.4505 3.59006 12.4445 5.60338 12.4445 8.07767C12.4445 10.552 10.4505 12.5653 8 12.5653Z"/>
</svg>
