<svg width="19" height="22" viewBox="0 0 19 22" fill="none" xmlns="http://www.w3.org/2000/svg">
<path d="M16.5435 14.9153C14.2174 14.0294 12.8261 13.1218 12.8261 13.1218L11.038 18.7848L10.7935 19.5511L9.99457 17.274C11.837 14.7033 9.85326 14.5837 9.51087 14.5783H9.50543H9.5H9.49457H9.48913C9.14674 14.5783 7.16304 14.7033 9.00543 17.274L8.20109 19.5457L7.95652 18.7794L6.16848 13.1163C6.16848 13.1163 4.77717 14.024 2.45109 14.9098C-0.108696 15.8392 0.048913 17.9479 0 21.8935H9.02174H9.51087H19C18.9457 17.9479 19.1033 15.8446 16.5435 14.9153Z" />
<path d="M5.4731 9.52395C5.67962 10.8555 6.70136 12.5457 8.39157 13.1435C9.08179 13.3881 9.84266 13.3881 10.5329 13.1381C12.1959 12.5403 13.2557 10.8555 13.4568 9.52395C13.6796 9.50765 13.9731 9.19243 14.2883 8.07287C14.7231 6.54026 14.2611 6.31743 13.8698 6.35547C13.9459 6.14352 14.0003 5.937 14.0383 5.72504C14.7014 1.76308 12.7503 1.62178 12.7503 1.62178C12.7503 1.62178 12.4296 1.00221 11.5764 0.529386C11.0057 0.19243 10.2122 -0.0738743 9.16331 0.018517C8.82636 0.0348213 8.5057 0.100039 8.20136 0.203299C7.81549 0.333734 7.46223 0.523952 7.14157 0.746778C6.75027 0.996778 6.3807 1.30113 6.05462 1.64895C5.53831 2.17613 5.07636 2.86091 4.87527 3.71417C4.70679 4.35004 4.74483 5.01308 4.88614 5.73047C4.92418 5.937 4.97853 6.14895 5.05462 6.36091C4.66331 6.32287 4.20679 6.55113 4.63614 8.0783C4.95679 9.19243 5.25027 9.50765 5.4731 9.52395Z"/>
</svg>
