<svg width="200" height="174" viewBox="0 0 200 174" fill="none" xmlns="http://www.w3.org/2000/svg">
<path d="M129.293 155.274H135.486V172.627H129.293V170.722C128 172.355 126.231 173.171 123.986 173.171C122.693 173.171 121.536 172.967 120.515 172.491C119.426 172.015 118.541 171.402 117.725 170.517C116.908 169.701 116.296 168.68 115.888 167.591C115.479 166.434 115.207 165.21 115.207 163.917C115.207 162.692 115.411 161.467 115.819 160.378C116.228 159.289 116.84 158.268 117.589 157.452C118.337 156.635 119.29 155.955 120.311 155.478C121.4 155.002 122.556 154.73 123.849 154.73C126.027 154.73 127.796 155.478 129.225 156.975V155.274H129.293ZM121.536 163.917C121.536 164.461 121.604 165.005 121.808 165.482C122.012 165.958 122.284 166.366 122.625 166.775C122.965 167.115 123.373 167.387 123.849 167.591C124.326 167.795 124.87 167.864 125.415 167.864C125.959 167.864 126.503 167.795 126.98 167.591C127.456 167.387 127.864 167.115 128.205 166.775C128.545 166.434 128.817 166.026 129.021 165.55C129.225 165.073 129.361 164.597 129.361 164.053C129.361 163.508 129.225 163.032 129.021 162.488C128.817 162.011 128.545 161.603 128.205 161.195C127.864 160.854 127.456 160.582 126.98 160.378C126.503 160.174 125.959 160.106 125.415 160.106C124.87 160.106 124.326 160.174 123.849 160.378C123.373 160.582 122.965 160.854 122.625 161.195C122.284 161.535 122.012 161.943 121.808 162.419C121.672 162.896 121.536 163.372 121.536 163.917Z" fill="white"/>
<path d="M193.807 155.274H200V172.627H193.807V170.722C192.514 172.355 190.745 173.171 188.499 173.171C187.206 173.171 186.049 172.967 185.029 172.491C183.94 172.015 183.055 171.402 182.239 170.517C181.422 169.701 180.81 168.68 180.401 167.591C179.993 166.434 179.721 165.21 179.721 163.917C179.721 162.692 179.925 161.467 180.333 160.378C180.741 159.289 181.354 158.268 182.102 157.452C182.851 156.635 183.804 155.955 184.824 155.478C185.913 155.002 187.07 154.73 188.363 154.73C190.541 154.73 192.31 155.478 193.739 156.975V155.274H193.807ZM186.117 163.917C186.117 164.461 186.185 165.005 186.39 165.482C186.594 165.958 186.866 166.366 187.206 166.775C187.546 167.115 187.955 167.387 188.431 167.591C188.907 167.795 189.452 167.864 189.996 167.864C190.541 167.864 191.085 167.795 191.561 167.591C192.038 167.387 192.446 167.115 192.786 166.775C193.127 166.434 193.399 166.026 193.603 165.55C193.807 165.073 193.943 164.597 193.943 164.053C193.943 163.508 193.807 163.032 193.603 162.488C193.399 162.011 193.127 161.603 192.786 161.195C192.446 160.854 192.038 160.582 191.561 160.378C191.085 160.174 190.541 160.106 189.996 160.106C189.452 160.106 188.907 160.174 188.431 160.378C187.955 160.582 187.546 160.854 187.206 161.195C186.866 161.535 186.594 161.943 186.39 162.419C186.185 162.896 186.117 163.372 186.117 163.917Z" fill="white"/>
<path d="M15.1752 172.627L11.0242 164.121L6.80503 172.627H0L9.05069 155.274H13.1337L22.0483 172.627H15.1752Z" fill="white"/>
<path d="M23.0703 155.274H29.1948V158.132C29.8753 157.112 30.6239 156.295 31.5766 155.751C32.5293 155.206 33.6181 154.934 34.9111 154.934C35.0472 154.934 35.2513 154.934 35.4555 154.934C35.6596 154.934 35.8638 154.934 36.136 155.002V160.854C35.3194 160.446 34.4347 160.242 33.482 160.242C32.053 160.242 30.9641 160.65 30.2836 161.535C29.6031 162.351 29.1948 163.644 29.1948 165.21V172.627H23.0703V155.274Z" fill="white"/>
<path d="M50.2872 160.922C49.1984 160.174 48.1776 159.834 47.0888 159.834C46.4764 159.834 45.932 159.902 45.4556 160.106C44.9793 160.31 44.5029 160.582 44.0946 160.99C43.6863 161.331 43.4141 161.807 43.2099 162.283C43.0058 162.76 42.8697 163.372 42.8697 163.985C42.8697 164.597 43.0058 165.141 43.2099 165.686C43.4141 166.162 43.6863 166.639 44.0946 166.979C44.5029 167.319 44.9112 167.659 45.4556 167.863C46 168.068 46.5444 168.136 47.0888 168.136C48.2457 168.136 49.3345 167.727 50.2872 166.979V172.219C48.7901 172.899 47.361 173.171 46 173.171C44.7071 173.171 43.5502 172.967 42.3933 172.559C41.2365 172.151 40.2838 171.538 39.3991 170.722C38.5145 169.905 37.834 168.952 37.2896 167.863C36.7452 166.775 36.541 165.482 36.541 164.121C36.541 162.76 36.8132 161.467 37.2896 160.378C37.7659 159.221 38.4464 158.268 39.3311 157.452C40.2157 156.635 41.2365 155.955 42.3933 155.546C43.5502 155.07 44.8432 154.866 46.2042 154.866C47.7013 154.866 49.0623 155.206 50.3552 155.819V160.922H50.2872Z" fill="white"/>
<path d="M53.0762 144.59H59.2007V157.52C60.0173 156.499 60.902 155.819 61.7186 155.478C62.6032 155.138 63.5559 154.934 64.7128 154.934C66.8904 154.934 68.5236 155.546 69.6804 156.771C70.7693 157.996 71.3817 159.629 71.3817 161.671V172.695H65.2572V163.917C65.2572 163.032 65.1891 162.351 65.053 161.807C64.9169 161.263 64.7128 160.854 64.3725 160.582C63.8281 160.106 63.1476 159.902 62.3991 159.902C61.3783 159.902 60.5617 160.242 60.0173 160.854C59.4729 161.467 59.2007 162.351 59.2007 163.508V172.763H53.0762V144.59Z" fill="white"/>
<path d="M81.1813 146.768C80.9771 146.292 80.7049 145.883 80.2966 145.475C79.9563 145.135 79.48 144.794 79.0036 144.59C78.5273 144.386 77.9829 144.25 77.4385 144.25C76.8941 144.25 76.3497 144.386 75.8733 144.59C75.397 144.794 74.9887 145.067 74.5804 145.475C74.2401 145.815 73.8999 146.292 73.6957 146.768C73.4916 147.244 73.3555 147.789 73.3555 148.333C73.3555 148.877 73.4916 149.422 73.6957 149.898C73.8999 150.375 74.1721 150.783 74.5804 151.191C74.9206 151.531 75.397 151.872 75.8733 152.076C76.3497 152.28 76.8941 152.416 77.4385 152.416C77.9829 152.416 78.5273 152.28 79.0036 152.076C79.48 151.872 79.8883 151.599 80.2966 151.191C80.6369 150.851 80.9771 150.375 81.1813 149.898C81.3854 149.422 81.5215 148.877 81.5215 148.333C81.4535 147.789 81.3854 147.312 81.1813 146.768Z" fill="white"/>
<path d="M157.263 146.768C157.059 146.292 156.787 145.883 156.379 145.475C156.038 145.135 155.562 144.794 155.086 144.59C154.609 144.386 154.065 144.25 153.521 144.25C152.976 144.25 152.432 144.386 151.955 144.59C151.479 144.794 151.071 145.067 150.662 145.475C150.322 145.815 149.982 146.292 149.778 146.768C149.574 147.244 149.438 147.789 149.438 148.333C149.438 148.877 149.574 149.422 149.778 149.898C149.982 150.375 150.254 150.783 150.662 151.191C151.003 151.531 151.479 151.872 151.955 152.076C152.432 152.28 152.976 152.416 153.521 152.416C154.065 152.416 154.609 152.28 155.086 152.076C155.562 151.872 155.97 151.599 156.379 151.191C156.719 150.851 157.059 150.375 157.263 149.898C157.467 149.422 157.604 148.877 157.604 148.333C157.604 147.789 157.467 147.312 157.263 146.768Z" fill="white"/>
<path d="M80.5034 155.274H74.3789V172.627H80.5034V155.274Z" fill="white"/>
<path d="M83.7012 155.274H89.8257V157.384C91.527 155.751 93.3643 155.002 95.4058 155.002C97.9917 155.002 99.9652 156.091 101.258 158.268C102.619 156.091 104.593 155.002 107.11 155.002C107.927 155.002 108.676 155.138 109.424 155.342C110.173 155.546 110.785 155.955 111.262 156.431C111.806 156.907 112.214 157.588 112.486 158.404C112.759 159.221 112.963 160.174 112.963 161.331V172.559H106.838V163.985C106.838 163.1 106.77 162.351 106.634 161.807C106.498 161.263 106.362 160.786 106.09 160.514C105.886 160.174 105.545 159.97 105.273 159.902C104.933 159.765 104.593 159.765 104.252 159.765C102.279 159.765 101.326 161.195 101.326 164.053V172.627H95.2017V164.053C95.2017 163.168 95.1336 162.419 95.0656 161.875C94.9295 161.331 94.7934 160.854 94.5892 160.514C94.3851 160.174 94.1129 159.97 93.7726 159.834C93.4324 159.697 93.0241 159.629 92.6158 159.629C92.2075 159.629 91.8672 159.697 91.527 159.765C91.1867 159.902 90.9145 160.106 90.6423 160.446C90.3701 160.786 90.166 161.195 90.0299 161.807C89.8938 162.351 89.8257 163.1 89.8257 164.053V172.627H83.7012V155.274Z" fill="white"/>
<path d="M145.699 160.378V172.627H139.575V160.378H137.533V155.274H139.575V150.034H145.699V155.274H149.17V160.378H145.699Z" fill="white"/>
<path d="M156.584 155.274V172.627H150.459V155.274H156.584Z" fill="white"/>
<path d="M165.905 144.59V161.535L172.302 155.274H180.672L171.962 163.304L181.149 172.627H172.574L165.837 165.55V172.627H159.713V144.59H165.905Z" fill="white"/>
<path d="M131.471 131.661L100.304 67.3531L68.7286 131.661H17.1465L85.3329 0.731873H116.228L183.598 131.661H131.471Z" fill="white"/>
</svg>
