<?xml version="1.0" encoding="utf-8"?>
<!-- Generator: Adobe Illustrator 24.0.1, SVG Export Plug-In . SVG Version: 6.00 Build 0)  -->
<svg version="1.1" id="Шар_1" xmlns="http://www.w3.org/2000/svg" xmlns:xlink="http://www.w3.org/1999/xlink" x="0px" y="0px"
	 viewBox="0 0 726.8 166.1" style="enable-background:new 0 0 726.8 166.1;" xml:space="preserve">
<style type="text/css">
	.st0{fill:#FFFFFF;}
</style>
<g id="_x31__1_">
	<polygon class="st0" points="39.2,41.3 137.6,41.3 102.8,6.5 4.4,6.5 	"/>
	<polygon class="st0" points="175.9,52.3 137.6,90.5 137.6,41.3 175.9,3.1 	"/>
	<polygon class="st0" points="210.2,163.1 88.4,41.3 88.4,90.5 161,163.1 	"/>
	<g>
		<path class="st0" d="M545.4,102.6c-7.8,7.2-17.1,10.9-28.1,10.9c-11.1,0-20.4-3.6-28.1-10.9c-7.8-7.3-11.6-16.1-11.6-26.4
			s3.8-19,11.6-26.4c7.8-7.3,17.1-11,28.1-11c11.1,0,20.4,3.6,28.1,11c7.8,7.2,11.7,16,11.7,26.4C557.1,86.5,553.1,95.3,545.4,102.6
			z M502.9,90.6c3.9,3.9,8.7,5.9,14.4,5.9c5.5,0,10.3-2,14.3-6c4.1-4.1,6.1-8.8,6.1-14.3c0-5.4-2-10.2-6.1-14.3
			c-3.9-4.1-8.7-6.1-14.3-6.1c-5.5,0-10.3,2-14.3,6.1c-3.9,3.9-6,8.7-6,14.3C497,81.9,498.9,86.7,502.9,90.6z"/>
		<path class="st0" d="M245.5,110.9V41.3h43.2c5.3,0,11.1,2.1,16,6.1c4.9,3.9,8.5,10.7,8.5,18.7c0,7.1-2.6,13-7.7,17.7
			c-5.1,4.7-10.7,7-16.8,7h-24.3v20.2H245.5z M264.5,73.6h23.5c0.9,0,1.8-0.2,3.5-1c1.9-0.8,3.1-3.2,3.1-6.5c0-3.5-1.2-5.9-3.1-6.7
			c-1.9-0.8-2.7-0.9-3.6-0.9h-23.4V73.6z"/>
		<path class="st0" d="M324.3,110.9V41.3h60.9v16.6h-42v10.5h39.8v14.6h-39.8v11.5h42.8v16.3H324.3z"/>
		<path class="st0" d="M568.2,110.9v-72l38.1,38l38.1-38v72h-17.7V79.5l-20.5,20.8l-20.5-20.8v31.5H568.2z"/>
		<path class="st0" d="M659.5,110.9V41.3h60.9v16.6h-42v10.5H718v14.6h-39.5v11.5h42.8v16.3H659.5z"/>
		<path class="st0" d="M400.4,110.9V41.3h18.5v24.2h29V41.3h18.5v69.6h-18.5V82.9h-29v28.1H400.4z"/>
	</g>
</g>
</svg>
