<svg width="312" height="244" viewBox="0 0 312 244" fill="none" xmlns="http://www.w3.org/2000/svg">
<g clip-path="url(#clip0)">
<path d="M312 0L0 49.3755V243.1H312V0Z" fill="#006350"/>
<path d="M60.4203 90.063C60.4203 96.2687 55.9848 101.071 49.0069 101.071H43.6519V111.108H36.6741V79.0547H49.0069C55.6061 79.0547 60.4203 83.6415 60.4203 90.063ZM53.3343 90.117C53.3343 88.3362 52.3065 85.4762 48.7365 85.4762H43.6519V94.7037H48.7365C51.1165 94.6498 53.3343 93.0849 53.3343 90.117Z" fill="white"/>
<path d="M110.996 111.108L101.746 99.2905V111.108H95.0388V77.4358H101.746V97.3479L110.455 86.3396H118.19L108.724 98.1573L119.11 111.108H110.996Z" fill="white"/>
<path d="M139.448 86.2317V92.5453H135.499C131.821 92.5453 130.198 93.9483 130.198 98.2113V111.108H123.491V86.3936H127.818L129.008 89.4155C130.685 87.3109 133.065 86.2317 136.148 86.2317H139.448Z" fill="white"/>
<path d="M195.649 86.3936L185.75 111.108H179.584L169.523 86.3936H176.663L182.775 102.96L188.725 86.3936H195.649Z" fill="white"/>
<path d="M55.9847 152.659H43.165L40.9473 158.757H33.5908L46.1941 126.703H52.7392L65.7212 158.757H58.2025L55.9847 152.659ZM45.3828 146.615H53.767L49.5478 135.175L45.3828 146.615Z" fill="white"/>
<path d="M138.745 191.026V206.298H132.037V191.89C132.037 188.544 130.793 186.871 128.251 186.871C123.653 186.871 123.545 191.836 123.545 192.969V206.352H117V191.944C117 188.598 115.81 186.925 113.376 186.925C108.994 186.925 108.508 191.08 108.508 193.023V206.406H101.8V181.691H106.506L107.75 184.767C108.67 183.634 110.996 181.097 115.215 181.097C119.651 181.097 121.652 183.849 122.355 185.091C122.68 184.659 125.006 181.097 130.036 181.097C133.877 180.935 138.745 183.256 138.745 191.026Z" fill="white"/>
<path d="M175.96 172.625H182.667V206.298H175.96V172.625Z" fill="white"/>
<path d="M231.187 206.298L226.265 198.095L221.234 206.298H213.824L222.262 193.617L214.365 181.583H221.937L226.265 188.706L230.863 181.583H238.273L230.213 193.239L238.76 206.298H231.187Z" fill="white"/>
<path d="M252.932 120.066H260.126L275.055 86.3936H267.915L261.533 101.125L255.15 86.3936H247.847L258.017 108.572L252.932 120.066Z" fill="white"/>
<path d="M167.738 152.821V158.757H163.032C160.706 158.757 154.215 158.001 154.215 149.907V139.385H149.725V137.981L159.57 127.567H160.814V134.042H167.63V139.385H160.922V149.044C160.922 152.066 163.086 152.821 164.709 152.821H167.738Z" fill="white"/>
<path d="M239.68 111.108L230.484 99.2905V111.108H223.777V77.4358H230.484V97.3479L239.193 86.3396H246.928L237.462 98.1573L247.847 111.108H239.68Z" fill="white"/>
<path d="M76.5396 85.692C69.129 85.692 63.179 90.9264 63.179 98.7509C63.179 106.144 68.6963 111.81 76.5396 111.81C84.3828 111.81 89.9002 106.144 89.9002 98.7509C89.9002 90.9803 84.1124 85.692 76.5396 85.692ZM76.5396 105.55C72.8072 105.55 69.9404 102.96 69.9404 98.7509C69.9404 94.5958 72.7532 91.9517 76.5396 91.9517C80.2719 91.9517 83.1387 94.7037 83.1387 98.7509C83.1387 102.798 80.2719 105.55 76.5396 105.55Z" fill="white"/>
<path d="M155.351 85.692C147.94 85.692 141.99 90.9264 141.99 98.7509C141.99 106.144 147.508 111.81 155.351 111.81C163.194 111.81 168.711 106.144 168.711 98.7509C168.711 90.9803 162.924 85.692 155.351 85.692ZM155.351 105.55C151.619 105.55 148.752 102.96 148.752 98.7509C148.752 94.5958 151.564 91.9517 155.351 91.9517C159.083 91.9517 161.95 94.7037 161.95 98.7509C161.896 102.798 159.083 105.55 155.351 105.55Z" fill="white"/>
<path d="M83.6797 180.881C76.2692 180.881 70.3191 186.116 70.3191 193.94C70.3191 201.333 75.8364 206.999 83.6797 206.999C91.523 206.999 97.0403 201.333 97.0403 193.94C97.0403 186.17 91.2525 180.881 83.6797 180.881ZM83.6797 200.686C79.9474 200.686 77.0805 198.095 77.0805 193.886C77.0805 189.731 79.8933 187.087 83.6797 187.087C87.4661 187.087 90.2789 189.839 90.2789 193.886C90.2248 197.934 87.412 200.686 83.6797 200.686Z" fill="white"/>
<path d="M121.327 133.988L120.57 136.363C118.298 134.366 115.594 133.341 112.456 133.341C104.775 133.341 99.4744 138.845 99.4744 146.346C99.4744 154.17 105.1 159.458 112.456 159.458C115.54 159.458 118.244 158.487 120.462 156.545L121.003 158.757H126.304V134.042H121.327V133.988ZM113.051 153.145C108.94 153.145 106.29 150.123 106.29 146.346C106.29 142.029 109.319 139.546 113.051 139.546C116.784 139.546 119.813 142.137 119.813 146.346C119.813 150.231 117 153.145 113.051 153.145Z" fill="white"/>
<path d="M147.291 133.826V140.14H144.424C140.746 140.14 139.123 141.543 139.123 145.806V158.703H132.416V133.988H136.743L137.933 137.01C139.61 134.906 141.99 133.826 145.073 133.826H147.291Z" fill="white"/>
<path d="M82.9223 133.341C79.8391 133.341 77.1886 134.312 74.9708 136.255L73.8349 134.042H69.3994V167.715H76.1068V157.462C78.1081 158.811 80.4341 159.512 82.9223 159.512C89.5756 159.512 95.9043 154.926 95.9043 146.4C95.9584 138.413 90.0624 133.341 82.9223 133.341ZM82.3814 153.199C78.2704 153.199 75.6199 150.177 75.6199 146.4C75.6199 142.083 78.6491 139.6 82.3814 139.6C86.1137 139.6 89.1428 142.191 89.1428 146.4C89.1428 150.231 86.3301 153.199 82.3814 153.199Z" fill="white"/>
<path d="M158.11 180.881C155.026 180.881 152.376 181.853 150.158 183.795L149.022 181.583H144.587V215.255H151.294V205.003C153.295 206.352 155.621 207.053 158.11 207.053C164.763 207.053 171.092 202.466 171.092 193.94C171.092 185.954 165.196 180.881 158.11 180.881ZM157.515 200.686C153.404 200.686 150.753 197.664 150.753 193.886C150.753 189.569 153.782 187.087 157.515 187.087C161.247 187.087 164.276 189.677 164.276 193.886C164.276 197.772 161.517 200.686 157.515 200.686Z" fill="white"/>
<path d="M205.602 198.149C204.466 199.876 202.681 201.009 200.517 201.009C197.759 201.009 195.054 199.822 194.405 195.775H213.121C214.202 187.951 209.01 180.828 200.409 180.828C193.323 180.828 187.589 186.116 187.589 193.886C187.589 201.657 193.323 206.945 200.409 206.945C206.521 206.945 211.011 203.276 212.742 198.149H205.602ZM200.517 186.548C203.438 186.548 205.656 188.382 206.521 191.242H194.567C195.324 188.166 197.542 186.548 200.517 186.548Z" fill="white"/>
<path d="M60.2579 193.725C59.0138 197.826 55.8224 200.362 51.441 200.362C46.3564 200.362 42.0291 196.315 42.0291 190.217C42.0291 184.605 46.0318 180.072 51.441 180.072C55.8224 180.072 58.8515 182.446 60.2038 186.278H67.1816C65.7212 179.047 60.1497 173.489 51.3328 173.489C42.3536 173.489 35.0513 180.342 35.0513 190.217C35.0513 200.092 42.4618 206.945 51.3328 206.945C60.5825 206.945 65.9916 200.848 67.2898 193.671L60.2579 193.725Z" fill="white"/>
<path d="M197.001 102.96H203.492C203.492 104.255 204.033 106.252 208.144 106.252C211.282 106.252 212.58 105.118 212.58 103.769C212.58 103.014 212.309 102.528 211.39 102.097C208.847 100.909 205.277 100.801 202.681 99.8841C201.599 99.5064 197.542 98.1573 197.542 93.5705C197.542 90.1169 199.76 85.692 207.603 85.692C216.583 85.692 218.259 90.2788 218.259 93.9483H212.201C212.201 92.0056 210.687 91.0883 207.766 91.0343C204.682 90.9803 203.763 92.2215 203.763 92.923C203.763 93.8943 204.304 94.4879 205.277 94.8656C206.413 95.3513 209.767 95.783 213.067 96.7003C216.366 97.6717 218.963 99.3985 218.963 103.446C218.963 107.385 216.258 111.81 208.144 111.81C199.49 111.81 197.001 106.953 197.001 102.96Z" fill="white"/>
</g>
<defs>
<clipPath id="clip0">
<rect width="312" height="243.1" fill="white"/>
</clipPath>
</defs>
</svg>
