<svg width="70" height="28" viewBox="0 0 70 28" fill="none" xmlns="http://www.w3.org/2000/svg">
<path d="M27.5933 12.9607H27.8716C27.9025 13.5657 28.1602 14.0646 28.655 14.4467C29.1497 14.8288 29.7682 15.0305 30.5104 15.0305C31.2319 15.0305 31.8298 14.8394 32.2936 14.4573C32.7575 14.0752 32.9843 13.587 32.9843 12.9926C32.9843 12.5255 32.8296 12.1541 32.5101 11.8675C32.1906 11.5809 31.6752 11.3474 30.9536 11.1669L30.0156 10.9228C29.2528 10.7318 28.6962 10.4664 28.3457 10.148C27.9953 9.82957 27.82 9.405 27.82 8.89553C27.82 8.2693 28.0777 7.73859 28.5828 7.31403C29.0879 6.88947 29.7064 6.67719 30.4176 6.67719C31.1701 6.67719 31.7989 6.87885 32.3143 7.28219C32.8296 7.68552 33.0977 8.18439 33.1183 8.77878H32.84C32.809 8.25869 32.572 7.82351 32.1081 7.47324C31.6546 7.12298 31.0876 6.95315 30.4176 6.95315C29.7682 6.95315 29.2219 7.13359 28.7787 7.50509C28.3251 7.87658 28.1087 8.33298 28.1087 8.89553C28.1087 9.34132 28.2633 9.69159 28.5828 9.96755C28.9024 10.2435 29.4074 10.4664 30.1084 10.6469L31.0361 10.8804C31.8092 11.082 32.3864 11.3474 32.7369 11.6764C33.0977 12.0055 33.2729 12.4406 33.2729 12.9713C33.2729 13.6506 33.0152 14.2026 32.4998 14.6377C31.9844 15.0729 31.3247 15.2852 30.5001 15.2852C29.6754 15.2852 28.9951 15.0623 28.4488 14.6271C27.9128 14.2026 27.6139 13.64 27.5933 12.9607Z" fill="white"/>
<path d="M42.0347 6.80453V15.1791H41.7564V7.47322H41.7358L38.4476 15.1791H38.1486L34.8604 7.47322H34.8398V15.1791H34.5615V6.80453H34.8604L38.293 14.8182H38.3136L41.7255 6.80453H42.0347Z" fill="white"/>
<path d="M49.3842 15.1791L48.3225 12.2708H44.5395L43.4572 15.1791H43.1479L46.2815 6.80453H46.5702L49.7037 15.1791H49.3842ZM46.4155 7.19725L44.6426 11.9948H48.2194L46.4465 7.19725H46.4155Z" fill="white"/>
<path d="M51.085 11.5172V15.1791H50.7964V6.80453H53.3218C54.1361 6.80453 54.7752 7.01682 55.2391 7.43077C55.7029 7.85533 55.94 8.42849 55.94 9.16086C55.94 9.77648 55.7648 10.286 55.4246 10.6893C55.0844 11.0926 54.6 11.358 53.9918 11.4641L56.1358 15.1791H55.8163L53.6929 11.5066C53.5589 11.5172 53.4352 11.5172 53.3218 11.5172H51.085ZM51.085 7.06989V11.2518H53.3218C54.0434 11.2518 54.6206 11.0608 55.0329 10.6893C55.4452 10.3178 55.6514 9.80832 55.6514 9.16086C55.6514 8.50279 55.4452 7.99331 55.0329 7.62182C54.6206 7.25032 54.0434 7.06989 53.3115 7.06989H51.085Z" fill="white"/>
<path d="M59.8984 15.1791H59.6201V7.0805H56.6824V6.80453H62.8258V7.0805H59.8881L59.8984 15.1791Z" fill="white"/>
<path d="M31.2425 16.0284C32.3351 16.0284 33.2113 16.4211 33.8503 17.1959C34.4997 17.9707 34.8193 19.0215 34.8193 20.3377C34.8193 21.6538 34.4997 22.7046 33.8503 23.4794C33.2009 24.2543 32.3351 24.647 31.2321 24.647C30.1292 24.647 29.2634 24.2543 28.614 23.4794C27.9646 22.7046 27.645 21.6538 27.645 20.3377C27.645 19.0215 27.9646 17.9813 28.614 17.1959C29.2634 16.4105 30.1292 16.0284 31.2425 16.0284ZM31.2425 16.2937C30.2323 16.2937 29.4283 16.6546 28.8304 17.387C28.2326 18.1087 27.9336 19.0958 27.9336 20.3271C27.9336 21.5583 28.2326 22.5348 28.8304 23.2672C29.4283 23.9995 30.2323 24.3604 31.2425 24.3604C32.2423 24.3604 33.0463 23.9995 33.6442 23.2672C34.242 22.5348 34.541 21.5583 34.541 20.3271C34.541 19.0958 34.242 18.1193 33.6442 17.387C33.0463 16.6652 32.2423 16.2937 31.2425 16.2937Z" fill="white"/>
<path d="M36.448 20.8585V24.5203H36.1594V16.1458H38.6848C39.4992 16.1458 40.1383 16.3581 40.6021 16.772C41.066 17.1966 41.303 17.7698 41.303 18.5021C41.303 19.1178 41.1278 19.6272 40.7877 20.0306C40.4372 20.4339 39.963 20.6993 39.3549 20.8054L41.4989 24.5203H41.1793L39.0559 20.8479C38.9219 20.8585 38.7982 20.8585 38.6848 20.8585H36.448ZM36.448 16.4112V20.5931H38.6848C39.4064 20.5931 39.9836 20.4021 40.396 20.0306C40.8083 19.6591 41.0144 19.1496 41.0144 18.5021C41.0144 17.8441 40.8083 17.3346 40.396 16.9631C39.9836 16.5916 39.4064 16.4112 38.6745 16.4112H36.448Z" fill="white"/>
<path d="M48.4261 24.5203L47.3644 21.6121H43.5814L42.5094 24.5203H42.2002L45.3338 16.1458H45.6224L48.756 24.5203H48.4261ZM45.4678 16.5385L43.6845 21.3361H47.2613L45.4884 16.5385H45.4678Z" fill="white"/>
<path d="M50.1265 24.5203H49.8379V16.1458H50.1471L55.5484 23.9684H55.5691V16.1458H55.8474V24.5203H55.5897L50.1471 16.6341H50.1265V24.5203Z" fill="white"/>
<path d="M63.9388 21.241C63.9388 22.2918 63.6502 23.1197 63.073 23.7247C62.4957 24.3297 61.702 24.6269 60.7022 24.6269C60.0219 24.6269 59.4137 24.4464 58.8777 24.075C58.3417 23.7141 57.9294 23.194 57.6407 22.5359C57.3418 21.8778 57.1975 21.1136 57.1975 20.2645C57.1975 18.9908 57.5171 17.9612 58.1664 17.1864C58.8055 16.4116 59.6611 16.0189 60.7125 16.0189C61.5165 16.0189 62.2071 16.2524 62.7947 16.7088C63.3822 17.1652 63.743 17.7596 63.8976 18.5026H63.6193C63.4647 17.8339 63.1142 17.3032 62.5885 16.8998C62.0628 16.4965 61.434 16.2948 60.7125 16.2948C59.7436 16.2948 58.9602 16.6557 58.3726 17.3881C57.7851 18.1204 57.4964 19.0757 57.4964 20.2751C57.4964 21.4851 57.7954 22.4722 58.3932 23.2258C58.9911 23.9794 59.7642 24.3615 60.7228 24.3615C61.6402 24.3615 62.3617 24.0856 62.8874 23.5336C63.4131 22.9817 63.6812 22.2175 63.6812 21.2622V20.6784H60.6919V20.4131H63.9595V21.241H63.9388Z" fill="white"/>
<path d="M70.0005 24.2444V24.5203H65.3413V16.1458H70.0005V16.4218H65.6299V20.0943H69.8046V20.3596H65.6299V24.255H70.0005V24.2444Z" fill="white"/>
<path d="M23.8004 18.0656L23.6973 17.4712L24.9239 15.168L23.7385 13.215L24.2024 12.0156L23.0685 11.1134L22.9139 8.67217L20.6874 7.6426L20.2751 6.65549L19.6154 6.43259L18.6361 4.82986L16.5643 4.92539L14.8119 3.32266L13.2142 3.88521L12.6988 3.59863L11.431 4.23547L8.988 3.69416L8.00876 4.75556L7.33875 4.66004L6.38012 6.17785L3.65884 7.05882L3.08161 9.57436L2.59714 9.94586L2.56621 10.5084L2.31883 10.7525L2.33944 11.0922L0.690186 12.9496L1.41173 14.9132L0.813881 16.0596L1.44266 17.2059L1.02004 19.127L2.66929 20.8571L2.85483 22.375L3.91654 22.9163L4.65871 25.2408L7.16351 25.6865L8.00876 26.8116L9.21477 26.7692L10.6888 27.8837L12.5957 27.1407L14.7295 28.0004L15.6469 27.1938L16.4715 27.3636L17.8218 25.8139L20.2339 25.5167L20.8626 23.8928L21.3162 23.6911L21.7285 22.3219L23.9035 20.8253L23.6354 18.331L23.8004 18.0656Z" fill="#727376"/>
<path d="M21.244 20.3581L20.708 21.462L21.78 19.042L21.244 20.3581Z" fill="#898A8D"/>
<path d="M17.4502 25.1346L16.6978 25.4424L18.8418 23.8291L17.4502 25.1346Z" fill="#A0A1A3"/>
<path d="M23.2025 13.8943L22.2954 10.9648L23.12 12.5145L23.2025 13.8943Z" fill="#8D8E91"/>
<path d="M7.51367 25.2084L6.71997 24.752L9.34847 25.7178L7.51367 25.2084Z" fill="#6C6E70"/>
<path d="M23.8007 18.0655L23.0173 19.2436L23.574 16.6113L23.8007 18.0655Z" fill="#F2F2F2"/>
<path d="M2.33946 11.9511L2.31885 10.7517L3.62794 9.43555L2.33946 11.9511Z" fill="#E5E5E5"/>
<path d="M18.4819 24.9429L20.193 23.9664L21.3166 23.6904L18.4819 24.9429Z" fill="#A0A0A0"/>
<path d="M21.3164 23.6912L20.1929 23.9672L21.8834 21.8125L21.3164 23.6912Z" fill="#CCCCCC"/>
<path d="M18.894 6.30469L20.2753 6.65495L20.935 8.23645L18.894 6.30469Z" fill="#D8D8D8"/>
<path d="M17.3679 5.66797L20.2747 6.65508L18.8935 6.30481L17.3679 5.66797Z" fill="#F2F2F2"/>
<path d="M2.77246 20.4746L4.4011 23.1494L2.85492 22.3745L2.77246 20.4746Z" fill="#999999"/>
<path d="M2.77185 20.4741L2.85432 22.3741L2.42139 18.9775L2.77185 20.4741Z" fill="#A5A5A5"/>
<path d="M16.4719 27.3637L13.5857 26.748L15.4411 26.833L16.4719 27.3637Z" fill="#BFBFBF"/>
<path d="M16.4719 27.3632L15.4412 26.8325L17.9666 25.6543L16.4719 27.3632Z" fill="#D8D8D8"/>
<path d="M1.7937 17.4182L2.42247 18.9784L0.814453 16.0596L1.7937 17.4182Z" fill="#BFBFBF"/>
<path d="M1.56692 14.584L1.7937 17.4179L0.814453 16.0593L1.56692 14.584Z" fill="#D8D8D8"/>
<path d="M13.5852 26.748L10.6887 27.8838L12.6472 27.0134L13.5852 26.748Z" fill="#CCCCCC"/>
<path d="M14.8118 3.32227L17.3681 5.66798L16.3579 4.93561L14.8118 3.32227Z" fill="#E5E5E5"/>
<path d="M24.9242 15.1676L23.5635 13.6711L23.1306 12.2275L24.9242 15.1676Z" fill="#E5E5E5"/>
<path d="M23.5636 13.6705L22.6978 10.8047L23.1307 12.227L23.5636 13.6705Z" fill="#808183"/>
<path d="M23.1307 12.2276L22.6978 10.8053L22.9142 8.67188L23.1307 12.2276Z" fill="#D8D8D8"/>
<path d="M10.6888 27.8836L9.60645 26.4932L12.6473 27.0133L10.6888 27.8836Z" fill="#999999"/>
<path d="M10.6882 27.8835L7.98755 25.835L9.60588 26.493L10.6882 27.8835Z" fill="#999999"/>
<path d="M8.4932 5.03074L6.85425 6.02846L8.98797 3.69336L8.4932 5.03074Z" fill="#F2F2F2"/>
<path d="M8.98755 3.69336L11.8944 4.34082L10.977 4.44696L8.98755 3.69336Z" fill="#F2F2F2"/>
<path d="M8.49365 5.03074L8.98843 3.69336L10.9778 4.44696L8.49365 5.03074Z" fill="#E5E5E5"/>
<path d="M13.6367 4.3306L14.8118 3.32227L16.358 4.93561L13.6367 4.3306Z" fill="#F2F2F2"/>
<path d="M11.8947 4.34069L13.6367 4.33008L10.9773 4.44683L11.8947 4.34069Z" fill="#9C9EA0"/>
<path d="M11.8948 4.34122L14.8119 3.32227L13.6368 4.3306L11.8948 4.34122Z" fill="#E5E5E5"/>
<path d="M6.08105 6.63398L6.85414 6.02897L8.49309 5.03125L6.08105 6.63398Z" fill="#B9B9BA"/>
<path d="M6.08079 6.6343L3.65845 7.05886L6.85387 6.0293L6.08079 6.6343Z" fill="#E5E5E5"/>
<path d="M24.9238 15.1675L23.522 16.2183L23.5632 13.6709L24.9238 15.1675Z" fill="#F2F2F2"/>
<path d="M23.5632 17.7472L23.522 16.2188L24.9238 15.168L23.5632 17.7472Z" fill="#E5E5E5"/>
<path d="M15.4412 26.8325L17.1007 25.8984L17.9666 25.6543L15.4412 26.8325Z" fill="#BFBFBF"/>
<path d="M1.74164 15.8577L1.79318 17.4179L1.56641 14.584L1.74164 15.8577Z" fill="#A5A5A5"/>
<path d="M7.98852 25.8351L6.82373 25.1982L9.60685 26.4932L7.98852 25.8351Z" fill="#6E6F72"/>
<path d="M7.98788 25.8351L4.65845 25.2407L6.82309 25.1982L7.98788 25.8351Z" fill="#999999"/>
<path d="M3.8646 9.10687L3.65845 7.05835L6.08079 6.63379L3.8646 9.10687Z" fill="#F2F2F2"/>
<path d="M3.86491 9.10711L2.85474 10.4976L3.65875 7.05859L3.86491 9.10711Z" fill="#E5E5E5"/>
<path d="M20.2336 7.44043L22.9137 8.67166L21.2232 8.93701L20.2336 7.44043Z" fill="#E5E5E5"/>
<path d="M21.2234 8.93723L22.9139 8.67188L22.6974 10.8053L21.2234 8.93723Z" fill="#F2F2F2"/>
<path d="M9.60645 26.4932L11.4309 26.6842L12.6473 27.0133L9.60645 26.4932Z" fill="#CCCCCC"/>
<path d="M23.9038 20.8252L22.9246 18.4158L23.5636 17.7471L23.9038 20.8252Z" fill="#D8D8D8"/>
<path d="M22.9246 18.4159L23.5224 16.2188L23.5636 17.7472L22.9246 18.4159Z" fill="#CCCCCC"/>
<path d="M2.51514 11.7397L2.85529 10.4979L3.86546 9.10742L2.51514 11.7397Z" fill="#B9BABA"/>
<path d="M2.51467 11.7389L0.690186 12.9489L2.85483 10.4971L2.51467 11.7389Z" fill="#F2F2F2"/>
<path d="M13.6367 4.33008L16.358 4.93508L15.4406 5.08368L13.6367 4.33008Z" fill="#CCCCCC"/>
<path d="M15.4412 5.08384L16.3586 4.93524L18.6366 4.8291L15.4412 5.08384Z" fill="#F2F2F2"/>
<path d="M8.49365 5.03104L10.9778 4.44727L10.2254 5.05227L8.49365 5.03104Z" fill="#CCCCCC"/>
<path d="M3.8645 9.10687L6.08069 6.63379L5.35914 7.81195L3.8645 9.10687Z" fill="#E5E5E5"/>
<path d="M4.84399 22.8945L6.82309 25.1978L4.65845 25.2402L4.84399 22.8945Z" fill="#A5A5A5"/>
<path d="M4.84404 22.8943L4.6585 25.24L3.57617 21.8223L4.84404 22.8943Z" fill="#B2B2B2"/>
<path d="M23.9038 20.8254L21.8423 20.645L22.9246 18.416L23.9038 20.8254Z" fill="#E5E5E5"/>
<path d="M21.3679 22.5763L21.8421 20.6445L23.9036 20.825L21.3679 22.5763Z" fill="#F2F2F2"/>
<path d="M23.5635 13.6714L22.9966 14.1491L24.2026 12.0156L23.5635 13.6714Z" fill="#CCCCCC"/>
<path d="M23.5223 16.2183L22.9966 14.1485L23.5635 13.6709L23.5223 16.2183Z" fill="#D8D8D8"/>
<path d="M22.0891 11.1656L22.6973 10.8047L24.2022 12.0147L22.0891 11.1656Z" fill="#E5E5E5"/>
<path d="M22.0891 11.166L24.2022 12.0151L22.9962 14.1486L22.0891 11.166Z" fill="#F2F2F2"/>
<path d="M21.2234 8.9375L22.6974 10.8056L22.0893 11.1665L21.2234 8.9375Z" fill="#CCCCCC"/>
<path d="M2.51467 11.7393L2.2879 14.2866L0.690186 12.9493L2.51467 11.7393Z" fill="#D8D8D8"/>
<path d="M2.2879 14.2866L1.74159 15.8575L0.690186 12.9492L2.2879 14.2866Z" fill="#B2B2B2"/>
<path d="M20.2339 7.44043L21.2234 8.93701L19.4917 7.65271L20.2339 7.44043Z" fill="#CCCCCC"/>
<path d="M18.6362 4.8291L20.2339 7.44017L19.4918 7.65245L18.6362 4.8291Z" fill="#E5E5E5"/>
<path d="M10.2249 5.05276L10.9773 4.44776L12.6987 3.59863L10.2249 5.05276Z" fill="#D8D8D8"/>
<path d="M20.2336 25.5163L20.3161 22.5868L21.3675 22.5762L20.2336 25.5163Z" fill="#D8D8D8"/>
<path d="M20.3162 22.5869L21.8417 20.6445L21.3676 22.5763L20.3162 22.5869Z" fill="#E5E5E5"/>
<path d="M14.7294 28.0002L11.4309 26.6841L13.4512 26.2383L14.7294 28.0002Z" fill="#A5A5A5"/>
<path d="M14.7291 27.9999L13.4509 26.238L16.1516 25.4844L14.7291 27.9999Z" fill="#CCCCCC"/>
<path d="M14.7295 27.9999L16.152 25.4844L17.1003 25.8983L14.7295 27.9999Z" fill="#E5E5E5"/>
<path d="M17.1001 25.898L18.3267 24.2422L20.2337 25.5159L17.1001 25.898Z" fill="#CCCCCC"/>
<path d="M20.2341 25.5164L18.3271 24.2427L20.3166 22.5869L20.2341 25.5164Z" fill="#E5E5E5"/>
<path d="M16.1521 25.484L18.327 24.2422L17.1004 25.898L16.1521 25.484Z" fill="#D8D8D8"/>
<path d="M3.39082 19.9867L3.57636 21.8229L1.02002 19.127L3.39082 19.9867Z" fill="#B2B2B2"/>
<path d="M4.84403 22.8946L3.57616 21.8226L3.39062 19.9863L4.84403 22.8946Z" fill="#999999"/>
<path d="M2.54558 17.0146L3.39082 19.9866L1.02002 19.1269L2.54558 17.0146Z" fill="#999999"/>
<path d="M2.54595 17.014L1.74194 15.857L2.28826 14.2861L2.54595 17.014Z" fill="#D8D8D8"/>
<path d="M2.54558 17.0144L1.02002 19.1266L1.74157 15.8574L2.54558 17.0144Z" fill="#F2F2F2"/>
<path d="M17.2551 6.6335L18.6364 4.8291L19.4919 7.65245L17.2551 6.6335Z" fill="#F2F2F2"/>
<path d="M15.4412 5.08384L18.6366 4.8291L17.2553 6.6335L15.4412 5.08384Z" fill="#E5E5E5"/>
<path d="M7.41088 7.03674L5.35962 7.81157L7.33873 4.65918L7.41088 7.03674Z" fill="#D8D8D8"/>
<path d="M11.4312 26.6839L8.00903 26.8113L10.5035 25.7393L11.4312 26.6839Z" fill="#A5A5A5"/>
<path d="M11.4311 26.6839L10.5034 25.7393L13.4515 26.2381L11.4311 26.6839Z" fill="#999999"/>
<path d="M6.64762 23.68L6.82286 25.1978L4.84375 22.8945L6.64762 23.68Z" fill="#999999"/>
<path d="M6.64795 23.6797L8.00858 26.8108L6.82318 25.1975L6.64795 23.6797Z" fill="#BFBFBF"/>
<path d="M7.41102 7.03673L7.33887 4.65918L9.93644 6.1027L7.41102 7.03673Z" fill="#E5E5E5"/>
<path d="M7.33887 4.65918L10.2251 5.0519L9.93644 6.1027L7.33887 4.65918Z" fill="#D8D8D8"/>
<path d="M2.5976 9.94531L3.35007 12.8323L2.51514 11.7391L2.5976 9.94531Z" fill="#D8D8D8"/>
<path d="M3.34955 12.8325L2.28784 14.2866L2.51462 11.7393L3.34955 12.8325Z" fill="#BFBFBF"/>
<path d="M15.4414 5.08398L17.2556 6.63364L14.8333 6.13478L15.4414 5.08398Z" fill="#CCCCCC"/>
<path d="M12.6985 3.59863L15.4404 5.0846L14.8322 6.1354L12.6985 3.59863Z" fill="#D8D8D8"/>
<path d="M5.2981 9.42528L5.35994 7.81194L7.4112 7.03711L5.2981 9.42528Z" fill="#F2F2F2"/>
<path d="M5.29807 9.42486L2.59741 9.94495L5.35991 7.81152L5.29807 9.42486Z" fill="#D8D8D8"/>
<path d="M10.2249 5.05276L12.6987 3.59863L12.2864 5.9868L10.2249 5.05276Z" fill="#F2F2F2"/>
<path d="M12.2864 5.9868L12.6987 3.59863L14.8324 6.1354L12.2864 5.9868Z" fill="#E5E5E5"/>
<path d="M10.2256 5.05273L12.2872 5.98677L9.93701 6.10353L10.2256 5.05273Z" fill="#E5E5E5"/>
<path d="M22.0896 11.166L22.9967 14.1486L21.5227 12.9916L22.0896 11.166Z" fill="#E5E5E5"/>
<path d="M21.5227 12.9912L22.9967 14.1481L23.6461 16.2922L21.5227 12.9912Z" fill="#CCCCCC"/>
<path d="M21.8418 20.6448L21.6562 18.2354L22.9241 18.4158L21.8418 20.6448Z" fill="#D8D8D8"/>
<path d="M22.9241 18.4158L21.6562 18.2353L23.6457 16.293L22.9241 18.4158Z" fill="#F2F2F2"/>
<path d="M19.4917 7.65234L21.2234 8.93665L21.4502 9.15954L19.4917 7.65234Z" fill="#E5E5E5"/>
<path d="M21.4502 9.16016L22.0893 11.1662L21.5224 12.9918L21.4502 9.16016Z" fill="#D8D8D8"/>
<path d="M8.73013 24.0193L8.00859 26.8108L6.64795 23.6797L8.73013 24.0193Z" fill="#A5A5A5"/>
<path d="M8.73058 24.0195L10.5035 25.739L8.00903 26.811L8.73058 24.0195Z" fill="#BFBFBF"/>
<path d="M17.2551 6.63379L19.4919 7.65274L18.6879 8.73538L17.2551 6.63379Z" fill="#E5E5E5"/>
<path d="M18.6875 8.73498L19.4915 7.65234L21.45 9.15954L18.6875 8.73498Z" fill="#F2F2F2"/>
<path d="M13.4509 26.2383L14.5126 24.6992L16.1516 25.4847L13.4509 26.2383Z" fill="#D8D8D8"/>
<path d="M13.4513 26.2383L12.4412 26.5885L14.513 24.6992L13.4513 26.2383Z" fill="#E5E5E5"/>
<path d="M4.11245 18.2034L3.3909 19.9866L2.54565 17.0146L4.11245 18.2034Z" fill="#BFBFBF"/>
<path d="M4.86514 11.8346L3.34988 12.8323L2.59741 9.94531L4.86514 11.8346Z" fill="#CCCCCC"/>
<path d="M5.29807 9.42578L4.86514 11.8352L2.59741 9.94587L5.29807 9.42578Z" fill="#E5E5E5"/>
<path d="M18.3271 24.2428L18.6364 22.0244L20.3166 22.587L18.3271 24.2428Z" fill="#D8D8D8"/>
<path d="M21.522 12.9912L23.6454 16.2922L20.7283 15.0291L21.522 12.9912Z" fill="#F2F2F2"/>
<path d="M20.7283 15.0293L23.6454 16.2924L21.656 18.2348L20.7283 15.0293Z" fill="#D8D8D8"/>
<path d="M7.41138 7.03755L9.9368 6.10352L9.26679 7.98221L7.41138 7.03755Z" fill="#D8D8D8"/>
<path d="M21.5222 12.9913L20.7285 15.0292L19.6978 11.6221L21.5222 12.9913Z" fill="#CCCCCC"/>
<path d="M21.4501 9.16016L21.5222 12.9918L19.6978 11.6226L21.4501 9.16016Z" fill="#F2F2F2"/>
<path d="M18.6875 8.73535L21.45 9.15992L19.6977 11.6224L18.6875 8.73535Z" fill="#D8D8D8"/>
<path d="M4.21582 21.7588L6.64847 23.6799L4.8446 22.8945L4.21582 21.7588Z" fill="#A5A5A5"/>
<path d="M4.11217 18.2031L4.21525 21.7588L3.39062 19.9863L4.11217 18.2031Z" fill="#A5A5A5"/>
<path d="M11.462 24.168L12.4413 26.588L10.5034 25.7389L11.462 24.168Z" fill="#B2B2B2"/>
<path d="M11.4618 24.1681L10.5032 25.739L8.73022 24.0195L11.4618 24.1681Z" fill="#999999"/>
<path d="M11.4619 24.168L14.513 24.6987L12.4412 26.588L11.4619 24.168Z" fill="#D8D8D8"/>
<path d="M2.46338 15.2207L4.11263 18.2033L2.54584 17.0145L2.46338 15.2207Z" fill="#B2B2B2"/>
<path d="M3.34955 12.832L2.46308 15.2202L2.28784 14.2862L3.34955 12.832Z" fill="#F2F2F2"/>
<path d="M2.46308 15.2202L2.54554 17.014L2.28784 14.2861L2.46308 15.2202Z" fill="#A5A5A5"/>
<path d="M6.41138 7.65273L7.41124 7.03711L9.26665 7.98177L6.41138 7.65273Z" fill="#E5E5E5"/>
<path d="M20.3164 22.5872L18.6362 22.0247L21.1926 20.751L20.3164 22.5872Z" fill="#CCCCCC"/>
<path d="M21.8423 20.6447L21.1929 20.7509L21.6567 18.2354L21.8423 20.6447Z" fill="#CCCCCC"/>
<path d="M20.3162 22.5869L21.1923 20.7507L21.8417 20.6445L20.3162 22.5869Z" fill="#D8D8D8"/>
<path d="M12.2864 5.98633L14.8324 6.13492L14.0387 7.6209L12.2864 5.98633Z" fill="#D8D8D8"/>
<path d="M7.54525 21.8862L6.64847 23.6799L4.21582 21.7588L7.54525 21.8862Z" fill="#BFBFBF"/>
<path d="M8.73013 24.0201L6.64795 23.6805L7.54473 21.8867L8.73013 24.0201Z" fill="#999999"/>
<path d="M7.08069 10.4553L4.8645 11.8352L5.29743 9.42578L7.08069 10.4553Z" fill="#D8D8D8"/>
<path d="M6.41138 7.65234L9.26665 7.98138L7.08139 10.4545L6.41138 7.65234Z" fill="#D8D8D8"/>
<path d="M6.41134 7.65234L7.08135 10.4545L5.2981 9.42489L6.41134 7.65234Z" fill="#E5E5E5"/>
<path d="M16.1521 25.4845L14.5132 24.6991L17.1623 24.4443L16.1521 25.4845Z" fill="#BFBFBF"/>
<path d="M18.3267 24.2428L17.1619 24.4444L18.6359 22.0244L18.3267 24.2428Z" fill="#BFBFBF"/>
<path d="M16.1521 25.484L17.1623 24.4439L18.327 24.2422L16.1521 25.484Z" fill="#E5E5E5"/>
<path d="M5.22539 14.0745L3.34937 12.8327L4.86462 11.835L5.22539 14.0745Z" fill="#BFBFBF"/>
<path d="M5.22588 14.0739L2.46338 15.2202L3.34985 12.832L5.22588 14.0739Z" fill="#E5E5E5"/>
<path d="M14.0388 7.62074L14.8325 6.13477L16.9559 7.19618L14.0388 7.62074Z" fill="#F2F2F2"/>
<path d="M14.8333 6.13477L17.2556 6.63363L16.9567 7.19618L14.8333 6.13477Z" fill="#D8D8D8"/>
<path d="M16.9558 7.19633L17.2547 6.63379L18.6875 8.73538L16.9558 7.19633Z" fill="#CCCCCC"/>
<path d="M20.7288 15.0293L21.6565 18.2348L19.4094 17.1627L20.7288 15.0293Z" fill="#E5E5E5"/>
<path d="M19.4094 17.1631L21.6565 18.2351L21.1927 20.7506L19.4094 17.1631Z" fill="#F2F2F2"/>
<path d="M6.43206 19.3601L4.21587 21.7588L4.11279 18.2031L6.43206 19.3601Z" fill="#BFBFBF"/>
<path d="M6.432 19.3604L7.54525 21.8865L4.21582 21.7591L6.432 19.3604Z" fill="#A5A5A5"/>
<path d="M18.6879 8.73535L19.698 11.6224L17.3582 10.6459L18.6879 8.73535Z" fill="#E5E5E5"/>
<path d="M16.9558 7.19629L18.6875 8.73533L17.3578 10.6459L16.9558 7.19629Z" fill="#F2F2F2"/>
<path d="M13.6367 22.6826L17.162 24.4445L14.5129 24.6993L13.6367 22.6826Z" fill="#A5A5A5"/>
<path d="M13.6369 22.6826L14.513 24.6993L11.4619 24.1686L13.6369 22.6826Z" fill="#BFBFBF"/>
<path d="M6.43206 19.3607L4.11279 18.2037L5.71051 16.7178L6.43206 19.3607Z" fill="#999999"/>
<path d="M5.22588 14.0742L5.71035 16.7171L2.46338 15.2205L5.22588 14.0742Z" fill="#B2B2B2"/>
<path d="M5.71035 16.7173L4.11263 18.2033L2.46338 15.2207L5.71035 16.7173Z" fill="#A5A5A5"/>
<path d="M11.5649 6.6444L12.2865 5.98633L14.0388 7.6209L11.5649 6.6444Z" fill="#CCCCCC"/>
<path d="M9.93701 6.10308L12.2872 5.98633L11.5657 6.6444L9.93701 6.10308Z" fill="#D8D8D8"/>
<path d="M9.26685 7.98221L9.93686 6.10352L11.5655 6.64483L9.26685 7.98221Z" fill="#F2F2F2"/>
<path d="M19.4093 17.1631L21.1925 20.7506L17.76 19.201L19.4093 17.1631Z" fill="#E5E5E5"/>
<path d="M17.76 19.2012L21.1925 20.7508L18.6362 22.0245L17.76 19.2012Z" fill="#CCCCCC"/>
<path d="M15.7607 21.1436L18.6366 22.0245L17.1626 24.4445L15.7607 21.1436Z" fill="#CCCCCC"/>
<path d="M15.7601 21.1436L17.162 24.4445L13.6367 22.6826L15.7601 21.1436Z" fill="#B2B2B2"/>
<path d="M17.7605 19.2012L18.6366 22.0245L15.7607 21.1436L17.7605 19.2012Z" fill="#BFBFBF"/>
<path d="M9.26685 7.98191L11.5655 6.64453L9.65854 10.1578L9.26685 7.98191Z" fill="#E5E5E5"/>
<path d="M9.2668 7.98145L9.6585 10.1573L7.08154 10.4545L9.2668 7.98145Z" fill="#CCCCCC"/>
<path d="M14.0388 7.62085L16.9559 7.19629L14.8222 9.99841L14.0388 7.62085Z" fill="#D8D8D8"/>
<path d="M16.956 7.19629L17.358 10.6459L14.8223 9.99841L16.956 7.19629Z" fill="#E5E5E5"/>
<path d="M11.5647 6.64453L12.1522 9.76507L9.65771 10.1578L11.5647 6.64453Z" fill="#BFBFBF"/>
<path d="M11.5649 6.64453L14.0388 7.62103L12.1525 9.76507L11.5649 6.64453Z" fill="#E5E5E5"/>
<path d="M14.0392 7.62109L14.8226 9.99865L12.1528 9.76514L14.0392 7.62109Z" fill="#CCCCCC"/>
<path d="M9.16322 20.0927L7.54489 21.8865L6.43164 19.3604L9.16322 20.0927Z" fill="#999999"/>
<path d="M15.7605 21.1437L13.6371 22.6827L12.3589 20.5068L15.7605 21.1437Z" fill="#A5A5A5"/>
<path d="M7.61749 15.0719L5.71054 16.7171L5.22607 14.0742L7.61749 15.0719Z" fill="#999999"/>
<path d="M9.94655 23.0645L11.4618 24.1683L8.73022 24.0197L9.94655 23.0645Z" fill="#BFBFBF"/>
<path d="M9.16382 20.0928L12.3593 20.5067L9.94721 23.0647L9.16382 20.0928Z" fill="#BFBFBF"/>
<path d="M12.3581 20.5068L13.6363 22.6827L9.94604 23.0648L12.3581 20.5068Z" fill="#999999"/>
<path d="M9.94604 23.0647L13.6363 22.6826L11.4613 24.1686L9.94604 23.0647Z" fill="#B2B2B2"/>
<path d="M9.16326 20.0928L9.94665 23.0647L7.54492 21.8866L9.16326 20.0928Z" fill="#A5A5A5"/>
<path d="M9.94665 23.0649L8.73033 24.0201L7.54492 21.8867L9.94665 23.0649Z" fill="#B2B2B2"/>
<path d="M19.4096 17.1634L17.7604 19.2013L16.5234 15.9746L19.4096 17.1634Z" fill="#CCCCCC"/>
<path d="M12.1522 9.76465L9.74018 12.5455L9.65771 10.1574L12.1522 9.76465Z" fill="#B2B2B2"/>
<path d="M17.358 10.6465L15.4614 12.8224L14.8223 9.99902L17.358 10.6465Z" fill="#D8D8D8"/>
<path d="M19.6976 11.6221L20.7284 15.0292L19.0276 13.4477L19.6976 11.6221Z" fill="#E5E5E5"/>
<path d="M17.3581 10.6455L19.0279 13.4476L15.4614 12.8214L17.3581 10.6455Z" fill="#E5E5E5"/>
<path d="M17.3582 10.6455L19.698 11.622L19.028 13.4476L17.3582 10.6455Z" fill="#D8D8D8"/>
<path d="M19.0282 13.4482L19.4096 17.1632L16.5234 15.9744L19.0282 13.4482Z" fill="#F2F2F2"/>
<path d="M19.0276 13.4482L20.7284 15.0297L19.409 17.1632L19.0276 13.4482Z" fill="#D8D8D8"/>
<path d="M15.4614 12.8223L19.0279 13.4485L16.5231 15.9746L15.4614 12.8223Z" fill="#D8D8D8"/>
<path d="M6.53442 12.3867L9.74016 12.5459L7.61675 15.0721L6.53442 12.3867Z" fill="#BFBFBF"/>
<path d="M9.6577 10.1582L9.74016 12.5464L6.53442 12.3872L9.6577 10.1582Z" fill="#D8D8D8"/>
<path d="M6.53517 12.3867L7.61749 15.0721L5.22607 14.0744L6.53517 12.3867Z" fill="#A5A5A5"/>
<path d="M6.53437 12.3869L5.22528 14.0745L4.8645 11.835L6.53437 12.3869Z" fill="#B2B2B2"/>
<path d="M7.08069 10.4551L6.53437 12.3868L4.8645 11.8349L7.08069 10.4551Z" fill="#F2F2F2"/>
<path d="M7.08074 10.4554L9.6577 10.1582L6.53442 12.3872L7.08074 10.4554Z" fill="#E5E5E5"/>
<path d="M11.3079 17.874L12.3593 20.5063L9.16382 20.0924L11.3079 17.874Z" fill="#A5A5A5"/>
<path d="M9.74036 12.5459L10.3794 15.21L7.61694 15.072L9.74036 12.5459Z" fill="#999999"/>
<path d="M13.4205 15.2736L11.3073 17.8741L10.3796 15.21L13.4205 15.2736Z" fill="#999999"/>
<path d="M15.4614 12.8223L16.5231 15.9746L13.4204 15.2741L15.4614 12.8223Z" fill="#CCCCCC"/>
<path d="M7.80225 17.9589L11.3069 17.874L9.16288 20.0924L7.80225 17.9589Z" fill="#BFBFBF"/>
<path d="M7.80258 17.959L9.16322 20.0924L6.43164 19.36L7.80258 17.959Z" fill="#A5A5A5"/>
<path d="M7.61716 15.0723L7.8027 17.9593L5.71021 16.7175L7.61716 15.0723Z" fill="#A5A5A5"/>
<path d="M7.8027 17.9596L6.43175 19.3607L5.71021 16.7178L7.8027 17.9596Z" fill="#BFBFBF"/>
<path d="M10.3792 15.21L11.3069 17.8741L7.80225 17.959L10.3792 15.21Z" fill="#A5A5A5"/>
<path d="M7.61694 15.0723L10.3794 15.2102L7.80248 17.9593L7.61694 15.0723Z" fill="#B2B2B2"/>
<path d="M12.4204 11.877L15.4612 12.8216L13.4203 15.2735L12.4204 11.877Z" fill="#D8D8D8"/>
<path d="M14.8221 9.99902L15.4612 12.8224L12.4204 11.8777L14.8221 9.99902Z" fill="#F2F2F2"/>
<path d="M12.1528 9.76465L14.8226 9.99816L12.4208 11.8769L12.1528 9.76465Z" fill="#BFBFBF"/>
<path d="M12.4206 11.877L13.4205 15.2735L10.3796 15.2098L12.4206 11.877Z" fill="#A5A5A5"/>
<path d="M12.152 9.76465L12.42 11.8769L9.73999 12.5455L12.152 9.76465Z" fill="#F2F2F2"/>
<path d="M9.73999 12.5456L12.42 11.877L10.3791 15.2098L9.73999 12.5456Z" fill="#B2B2B2"/>
<path d="M16.5231 15.9746L17.76 19.2013L14.7295 18.66L16.5231 15.9746Z" fill="#F2F2F2"/>
<path d="M14.7295 18.6592L17.76 19.2005L15.7603 21.1429L14.7295 18.6592Z" fill="#D8D8D8"/>
<path d="M13.4207 15.2734L14.7298 18.6593L11.3076 17.8739L13.4207 15.2734Z" fill="#B2B2B2"/>
<path d="M13.4204 15.2734L16.5231 15.974L14.7295 18.6593L13.4204 15.2734Z" fill="#D8D8D8"/>
<path d="M14.7297 18.6592L15.7605 21.1429L12.3589 20.506L14.7297 18.6592Z" fill="#BFBFBF"/>
<path d="M11.3076 17.874L14.7298 18.6595L12.359 20.5063L11.3076 17.874Z" fill="#999999"/>
<path d="M2.59741 3.11118L4.98883 4.16197L5.87531 6.3697L2.59741 3.11118Z" fill="#727272"/>
<path d="M5.35977 3.23845L5.87516 6.3696L4.98869 4.16187L4.16406 2.29379L5.35977 3.23845Z" fill="#A5A5A5"/>
<path d="M0.844971 2.29379L2.5973 3.11108L4.98872 4.16187L4.1641 2.29379H0.844971Z" fill="#8C8C8C"/>
<path d="M2.73131 0.955902L4.1641 2.29328H0.844971L2.73131 0.955902Z" fill="#B2B2B2"/>
<path d="M0 0.955902H2.73158L0.845243 2.29328L0 0.955902Z" fill="#BFBFBF"/>
<path d="M2.73158 0.955268L4.57668 1.09325L2.90681 0L0 0.955268H2.73158Z" fill="#8C8C8C"/>
<path d="M5.45326 1.09407H4.5771L2.90723 0.000823975L5.45326 1.09407Z" fill="#A5A5A5"/>
<path d="M5.36019 3.23793L4.57679 1.09388L2.73169 0.955902L4.16448 2.29328L5.36019 3.23793Z" fill="#727272"/>
<path d="M6.38083 6.21007L5.36035 3.23813L5.87574 6.36929L6.38083 6.21007Z" fill="#727272"/>
<path d="M5.45282 1.0936L6.38053 6.20959L5.36005 3.23764L4.57666 1.0936H5.45282Z" fill="#8C8C8C"/>
</svg>
