<svg width="38" height="38" viewBox="0 0 38 38" fill="none" xmlns="http://www.w3.org/2000/svg">
<path d="M0.475 38H37.525C37.7877 38 38 37.7877 38 37.525V35.5062C38 35.2435 37.7877 35.0312 37.525 35.0312H36.1356V16.0899H36.7531C37.0158 16.0899 37.2281 15.8776 37.2281 15.6149C37.2281 15.3523 37.0158 15.1399 36.7531 15.1399H20.1685V8.98768C20.2915 9.01903 20.416 9.0366 20.5414 9.0366C20.8055 9.0366 21.0686 8.96725 21.3104 8.82855C21.7996 8.54592 22.0875 8.04004 22.0799 7.47479C22.0723 6.94183 21.7958 6.4578 21.3403 6.18135L11.2879 0.0689906C11.2394 0.0395403 11.1872 0.0200651 11.1326 0.010565C11.0138 -0.0146103 10.8889 0.00533999 10.7849 0.0689906L0.7391 6.17612C0.2831 6.45353 0 6.95751 0 7.49094C0 8.05192 0.291175 8.55162 0.779 8.82855C1.13288 9.02948 1.53378 9.07603 1.9114 8.9796V15.1399H1.55467C1.292 15.1399 1.07967 15.3523 1.07967 15.6149C1.07967 15.8776 1.292 16.0899 1.55467 16.0899H1.9114V18.8687H0.79325C0.530575 18.8687 0.31825 19.081 0.31825 19.3437V21.8859C0.31825 22.1486 0.530575 22.361 0.79325 22.361H1.9399V35.0312H0.475475C0.2128 35.0312 0.000475192 35.2435 0.000475192 35.5062V37.525C1.92047e-07 37.7877 0.212325 38 0.475 38ZM35.1856 35.0312H34.4613V16.0899H35.1856V35.0312ZM24.225 29.7705V16.0899H29.7469V29.8622C27.5576 30.6313 25.5189 30.2266 24.225 29.7705ZM23.275 16.0899V29.3758C23.0057 29.2452 22.8423 29.1473 22.8109 29.1283C22.5867 28.9915 22.2946 29.0618 22.1578 29.2851C22.0205 29.5083 22.0899 29.8005 22.3131 29.9377C22.4409 30.0161 24.4824 31.245 27.2009 31.245C28.6031 31.245 30.1848 30.9182 31.777 29.9377C32.0008 29.8 32.0696 29.5079 31.9323 29.2841C31.7941 29.0609 31.5015 28.9911 31.2787 29.1288C31.0845 29.2485 30.8902 29.354 30.6964 29.4523V16.0899H33.5108V35.0312H20.168V22.3605H21.2862C21.5488 22.3605 21.7612 22.1481 21.7612 21.8855V19.3432C21.7612 19.0806 21.5488 18.8682 21.2862 18.8682H20.168V16.0895H23.275V16.0899ZM17.5446 22.3605V35.0312H4.5638V22.3605H17.5446ZM18.4946 22.3605H19.2185V35.0312H18.4946V22.3605ZM7.68027 16.0899V18.8687H5.74608V16.0899H7.68027ZM8.63027 16.0899H10.5649V18.8687H8.63027V16.0899ZM11.5149 16.0899H13.4491V18.8687H11.5149V16.0899ZM14.3991 16.0899H16.3338V18.8687H14.3991V16.0899ZM17.2843 16.0899H19.2185V18.8687H17.2843V16.0899ZM1.24782 8.00252C1.15852 7.95169 0.95 7.79969 0.95 7.49094C0.95 7.28668 1.0583 7.09383 1.23263 6.98791L11.0361 1.02802L20.8473 6.99313C21.0216 7.09906 21.1275 7.28383 21.1304 7.48761C21.1332 7.70374 21.023 7.89707 20.8363 8.00489C20.6483 8.11319 20.4259 8.11129 20.2407 8.00062L19.969 7.83816C19.9348 7.81346 19.9016 7.78924 19.8612 7.77404L11.2793 2.65254C11.2043 2.60741 11.1202 2.58509 11.0357 2.58509C10.9511 2.58509 10.8675 2.60741 10.792 2.65254L2.2078 7.77641C2.19307 7.78259 2.18167 7.79304 2.1679 7.80016L1.83968 7.99587C1.57557 8.15357 1.3376 8.05287 1.24782 8.00252ZM2.86093 8.49225L11.0357 3.61347L19.2185 8.49652V15.1395H2.86093V8.49225ZM2.86093 16.0899H4.7956V18.8687H2.86093V16.0899ZM1.26777 19.8187H20.8121V21.4109H1.26777V19.8187ZM2.88943 22.3605H3.6138V35.0312H2.88943V22.3605ZM0.95 35.9812H37.05V37.05H0.95V35.9812Z" fill="#7A7979"/>
</svg>
