<svg width="36" height="37" viewBox="0 0 36 37" fill="none" xmlns="http://www.w3.org/2000/svg">
<path d="M0.0359986 28.2808C0.204706 31.7112 0.738946 32.386 1.3013 32.5828C1.32942 32.5828 1.38566 32.6109 1.41378 32.6109V34.3543C1.41378 35.2821 2.17296 36.0132 3.07273 36.0132H5.94076C6.86865 36.0132 7.59972 35.254 7.59972 34.3543V32.5266H7.85278C7.99337 32.5266 8.13396 32.4704 8.24643 32.3579L8.92126 31.6831H20.309L20.9838 32.3579C21.0963 32.4704 21.2369 32.5266 21.3775 32.5266H21.6587V34.3543C21.6587 35.2821 22.4179 36.0132 23.3176 36.0132H26.1857C27.1135 36.0132 27.8446 35.254 27.8446 34.3543V32.6391C27.8727 32.6391 27.929 32.6109 27.9571 32.6109C28.5194 32.4141 29.0537 31.7674 29.2224 28.3089C29.2505 28.2527 29.2505 28.1964 29.2505 28.1402C29.2505 28.1121 29.2505 28.0558 29.2505 28.0277C29.2505 27.9996 29.2505 27.9715 29.2505 27.9715C29.4192 24.2037 27.6197 21.9261 26.4387 20.8577H28.7163C29.0256 20.8577 29.2786 20.6046 29.2786 20.2953C29.2786 18.7488 28.0133 17.4835 26.4668 17.4835H25.6233C25.2296 17.4835 24.836 17.6522 24.5829 17.9615C23.9362 16.7524 23.2052 15.5715 22.5866 14.6436C21.8836 13.5751 20.7027 12.9565 19.4092 12.9565H9.87727C8.61196 12.9565 7.40289 13.5751 6.69994 14.6436C6.08135 15.5715 5.35028 16.7524 4.70357 17.9615C4.45051 17.596 4.05686 17.4273 3.66321 17.4273H2.81967C1.27319 17.4273 0.00788067 18.6926 0.00788067 20.2391C0.00788067 20.5484 0.260942 20.8014 0.570239 20.8014H2.84779C1.63872 21.898 -0.132709 24.1475 0.00788067 27.9153C0.00788067 27.9434 0.00788067 27.9715 0.00788067 27.9715C0.00788067 27.9996 0.00788067 28.0558 0.00788067 28.084C0.00788067 28.1683 0.00788067 28.2245 0.0359986 28.2808ZM6.475 34.3261C6.475 34.6354 6.22194 34.8604 5.94076 34.8604H3.07273C2.76344 34.8604 2.53849 34.6073 2.53849 34.3261V32.4985H6.475V34.3261ZM26.7199 34.3261C26.7199 34.6354 26.4668 34.8604 26.1857 34.8604H23.3176C23.0083 34.8604 22.7834 34.6073 22.7834 34.3261V32.4985H26.7199V34.3261ZM27.6197 31.4019C27.5634 31.3738 27.5072 31.3738 27.451 31.3738H21.6306L20.9557 30.6989C20.8433 30.5865 20.7027 30.5302 20.5621 30.5302H8.69631C8.55573 30.5302 8.41514 30.5865 8.30266 30.6989L7.62783 31.3738H1.80743C1.75119 31.3738 1.69496 31.3738 1.63872 31.4019C1.52625 31.1488 1.3013 30.4459 1.18883 28.6744H3.10085C4.9004 28.6744 6.41876 27.3529 6.69994 25.5815H22.5303C22.8115 27.3529 24.3299 28.6744 26.1294 28.6744H28.0414C27.9571 30.4459 27.7321 31.1488 27.6197 31.4019ZM28.1258 27.5497H26.1575C24.9766 27.5497 23.9643 26.7343 23.6832 25.5815H27.929C28.0696 26.2282 28.1258 26.8749 28.1258 27.5497ZM25.314 18.8332C25.314 18.6645 25.4265 18.552 25.5952 18.552H26.4387C27.1417 18.552 27.7884 19.0019 28.0414 19.6767H25.3984C25.3702 19.6205 25.3421 19.5642 25.314 19.508V18.8332ZM5.0691 19.7329C5.80017 18.1583 6.67183 16.64 7.65595 15.206C8.16208 14.4749 9.00561 14.025 9.87727 14.025H19.3811C20.2809 14.025 21.1244 14.4468 21.6024 15.206C22.5584 16.64 23.4301 18.1583 24.1893 19.7329V19.9579H5.0691V19.7329ZM1.21695 19.6767C1.47001 19.0019 2.08861 18.552 2.81967 18.552H3.66321C3.83192 18.552 3.94439 18.6645 3.94439 18.8332V19.508C3.91627 19.5642 3.88815 19.6205 3.86003 19.6767H1.21695ZM4.33804 21.0545C4.39427 21.0826 4.45051 21.0826 4.50675 21.0826H24.7516C24.8079 21.0826 24.8641 21.0826 24.9203 21.0545C26.1294 21.898 27.0573 23.079 27.5916 24.4567H1.66684C2.20108 23.079 3.12897 21.898 4.33804 21.0545ZM1.32942 25.5815H5.57523C5.32217 26.7343 4.2818 27.5497 3.10085 27.5497H1.1326C1.1326 26.8749 1.18883 26.2282 1.32942 25.5815Z" fill="#7A7979"/>
<path d="M5.63099 29.518H2.81919C2.5099 29.518 2.25684 29.771 2.25684 30.0803C2.25684 30.3896 2.5099 30.6427 2.81919 30.6427H5.63099C5.94028 30.6427 6.19334 30.3896 6.19334 30.0803C6.19334 29.771 5.94028 29.518 5.63099 29.518Z" fill="#7A7979"/>
<path d="M23.0649 30.0803C23.0649 30.3896 23.318 30.6427 23.6273 30.6427H26.4391C26.7484 30.6427 27.0014 30.3896 27.0014 30.0803C27.0014 29.771 26.7484 29.518 26.4391 29.518H23.6273C23.318 29.518 23.0649 29.771 23.0649 30.0803Z" fill="#7A7979"/>
<path d="M17.7219 27.8309H11.536C11.2267 27.8309 10.9736 28.084 10.9736 28.3933C10.9736 28.7025 11.2267 28.9556 11.536 28.9556H17.7219C18.0312 28.9556 18.2843 28.7025 18.2843 28.3933C18.2843 28.084 18.0312 27.8309 17.7219 27.8309Z" fill="#7A7979"/>
<path d="M32.0624 3.64949H23.3458C22.4179 0.837695 19.3812 -0.652553 16.5975 0.275337C13.8139 1.20323 12.2674 4.21184 13.2234 7.02364C14.1513 9.83543 17.1599 11.3257 19.9717 10.3978C21.5744 9.86354 22.8116 8.62636 23.3458 7.02364H31.5V26.9873H31.4438C30.8533 27.0155 30.3753 27.5216 30.3753 28.1121V35.4227C30.3753 35.732 30.6284 35.9851 30.9377 35.9851C31.247 35.9851 31.5 35.732 31.5 35.4227V28.1121H34.8742V35.4227C34.8742 35.732 35.1272 35.9851 35.4365 35.9851C35.7458 35.9851 35.9989 35.732 35.9989 35.4227V28.1121C36.027 27.5216 35.549 27.0155 34.9304 26.9873H34.8742V6.46128C34.8742 4.91479 33.6089 3.64949 32.0624 3.64949ZM18.2846 9.55425C15.9508 9.55425 14.0669 7.67035 14.0669 5.33656C14.0669 3.00277 15.9508 1.11887 18.2846 1.11887C20.6184 1.11887 22.5023 3.00277 22.5023 5.33656C22.5023 7.67035 20.6184 9.55425 18.2846 9.55425ZM33.7495 26.9873H32.6247V6.46128C32.6247 6.15198 32.3717 5.89892 32.0624 5.89892H23.5989C23.627 5.53339 23.627 5.13974 23.5989 4.7742H32.0624C32.9903 4.7742 33.7495 5.53339 33.7495 6.46128V26.9873Z" fill="#7A7979"/>
</svg>
