<svg width="36" height="40" viewBox="0 0 36 40" fill="none" xmlns="http://www.w3.org/2000/svg">
<path d="M1.44065 38.4772V37.4605C3.65338 37.1017 5.26808 35.188 5.26808 32.9154V31.3007H8.55727C12.1455 31.3007 15.0161 28.3704 15.0161 24.8419V23.8253C15.9131 23.4665 16.571 22.8086 16.9298 21.9714C17.9464 21.9714 18.8435 21.2537 19.0827 20.2371L19.2621 19.4596C21.1758 19.8783 26.2591 21.3135 28.113 21.3135C31.5817 21.3135 34.512 18.9812 35.2895 15.5724C36.1865 11.6254 33.7346 7.61852 29.7875 6.72146L24.2856 5.46559L22.3121 1.75777C22.2523 1.57835 22.0729 1.51855 21.8935 1.45875L15.8533 0.0234612C15.6739 -0.0363423 15.4945 0.0234612 15.3749 0.143068L11.9661 2.59502L9.0357 1.93718C5.08867 0.980318 1.14163 3.37246 0.184772 7.3793C-0.712282 11.3861 1.73966 15.3332 5.7465 16.29L9.69354 17.1871L9.51413 17.9645C9.27492 18.9214 9.69354 19.9381 10.6504 20.4763C10.5906 21.3135 10.8298 22.091 11.368 22.8086V24.8419C11.368 26.3968 10.1122 27.6527 8.61708 27.6527H5.32788V26.038C5.32788 23.7655 3.65338 21.8518 1.50045 21.4929V20.5361C1.50045 20.1773 1.26124 19.9381 0.902415 19.9381C0.543593 19.9381 0.304379 20.1773 0.304379 20.5361C0.304379 27.8321 0.304379 31.1811 0.304379 38.4772C0.304379 38.836 0.543593 39.0752 0.902415 39.0752C1.26124 39.0752 1.44065 38.7762 1.44065 38.4772ZM11.8465 20.8351L15.7935 21.7322C14.717 23.5861 11.9661 22.9282 11.8465 20.8351ZM34.1532 15.2734C33.4954 18.0841 31.0434 20.0577 28.113 20.0577C24.1062 20.0577 21.1758 16.3498 22.0729 12.4626C22.8503 9.0538 26.1993 7.08028 29.4885 7.79793C32.8375 8.63518 34.9307 11.9244 34.1532 15.2734ZM15.8533 1.21953L21.3552 2.47541L22.7307 4.98716L13.521 2.89403L15.8533 1.21953ZM1.38084 7.67832C1.50045 7.02048 1.79947 6.42244 2.09849 5.88421L18.3651 9.65184C18.4249 9.65184 18.4847 9.65184 18.4847 9.65184C18.7837 9.65184 19.0229 9.47243 19.0827 9.17341C19.1425 8.87439 18.9631 8.51557 18.6641 8.45577L2.87593 4.86755C4.43083 3.19305 6.70336 2.53521 8.79649 3.07344C27.0964 7.3195 22.0131 6.12343 23.7474 6.54205L25.5415 6.96068C23.1493 7.79793 21.415 9.89105 20.8768 12.2234C20.2788 14.7949 21.116 17.3067 22.7307 19.041C17.5278 17.8449 21.1758 18.6822 5.92592 15.1538C2.69652 14.3763 0.603397 11.0273 1.38084 7.67832ZM10.8298 17.4861L18.1258 19.1606L17.9464 19.9381C17.8268 20.4763 17.2886 20.8351 16.6906 20.7155L11.4278 19.5194C11.1886 19.4596 10.9494 19.2802 10.77 19.041C10.4112 18.5028 10.77 18.0243 10.8298 17.4861ZM5.26808 28.8488H8.55727C10.77 28.8488 12.5043 27.0547 12.5043 24.8419V23.7057C12.9229 23.8851 13.3416 24.0047 13.82 24.0047V24.8419C13.82 27.7723 11.4278 30.1047 8.55727 30.1047H5.26808V28.8488ZM4.072 26.038V32.9154C4.072 34.5301 2.93574 35.9056 1.44065 36.2644V22.689C2.99554 23.0478 4.072 24.4233 4.072 26.038Z" fill="#7A7979"/>
<path d="M28.1128 10.7881C26.6776 10.7881 25.4217 11.745 25.1227 13.1803C24.7638 14.8548 25.7805 16.5293 27.455 16.8881C27.6942 16.9479 27.9334 16.9479 28.1726 16.9479C29.6079 16.9479 30.8638 15.991 31.1628 14.5557C31.3422 13.7783 31.2226 12.9411 30.7442 12.2234C30.2658 11.5058 29.6079 11.0273 28.8305 10.8479C28.5913 10.7881 28.3521 10.7881 28.1128 10.7881ZM29.7275 12.8812C29.9668 13.2999 30.0864 13.8381 29.9668 14.3165C29.7275 15.3332 28.7109 15.991 27.6942 15.7518C26.6776 15.5126 26.0197 14.4959 26.2589 13.4793C26.4383 12.642 27.2158 11.9842 28.1128 11.9842C28.2325 11.9842 28.4119 11.9842 28.5315 12.044C29.0697 12.1636 29.4883 12.4626 29.7275 12.8812Z" fill="#7A7979"/>
</svg>
