<svg width="40" height="40" viewBox="0 0 40 40" fill="none" xmlns="http://www.w3.org/2000/svg">
<path d="M2.65606 40C4.09193 40 6.53779 39.0276 11.2357 30.7093C13.943 29.4676 16.9143 28.3551 19.8518 27.4844C21.9865 26.8524 24.123 26.3556 26.2105 26.0076C29.6522 28.12 33.6517 29.4724 36.499 29.4724C39.6472 29.4724 39.9722 27.6916 39.9971 27.1462C40.0313 26.3991 39.765 25.7076 39.2271 25.1449C38.0855 23.9498 35.7579 23.344 32.3101 23.344C30.5941 23.344 28.6982 23.4987 26.6684 23.8036C24.6146 22.4489 22.9182 20.8524 21.7469 19.1702C20.6462 17.5911 19.6695 15.8636 18.8396 14.0298C21.0872 7.44711 21.5246 3.12356 20.1394 1.17644C19.5913 0.407111 18.7796 0 17.7909 0C16.6871 0 15.7847 0.488 15.1814 1.41111C13.3899 4.15244 14.7818 9.87689 16.5786 14.1182C15.7416 16.4813 14.6969 19.028 13.546 21.5111C12.2479 24.3124 10.9645 26.8596 9.7296 29.0884C6.20216 30.7573 0.577383 33.8604 0.0434889 36.88C-0.110767 37.7551 0.147067 38.5573 0.789429 39.1996C1.3131 39.7231 1.95857 40 2.65606 40ZM32.3096 25.4493C36.2958 25.4493 37.4463 26.3289 37.7041 26.5987C37.8806 26.7831 37.8988 26.9307 37.8913 27.0747C37.8513 27.1369 37.4987 27.3667 36.4985 27.3667C34.9355 27.3667 32.4643 26.7956 29.8046 25.5551C30.6795 25.4849 31.5161 25.4493 32.3096 25.4493ZM16.9445 2.56267C17.1539 2.24222 17.4073 2.10533 17.7909 2.10533C18.1434 2.10533 18.2986 2.22178 18.423 2.39644C19.0405 3.26444 19.0819 5.94355 17.6171 10.9276C16.263 6.868 16.1946 3.70978 16.9445 2.56267ZM15.4566 22.396C16.3044 20.5667 17.0965 18.7018 17.794 16.8964L17.822 16.9591L17.8665 16.8307C18.5208 18.0716 19.2406 19.2564 20.0185 20.3733C20.9792 21.7529 22.2408 23.0733 23.7313 24.268L23.5202 24.3009L23.6104 24.3587C22.1665 24.6644 20.7089 25.0351 19.2539 25.4662C17.1285 26.096 14.9845 26.8489 12.9285 27.6849L12.9948 27.5662L12.9112 27.6053C13.7482 25.9884 14.6 24.2458 15.4566 22.396ZM2.11727 37.2462C2.29153 36.2604 4.0977 34.5076 7.72783 32.4787C4.4769 37.5964 2.96235 37.8947 2.65606 37.8947C2.55515 37.8947 2.43957 37.8724 2.2782 37.7116C2.10572 37.5382 2.08838 37.4102 2.11727 37.2462Z" fill="#EAF1FF"/>
</svg>
