<svg width="20" height="21" viewBox="0 0 20 21" fill="none" xmlns="http://www.w3.org/2000/svg">
<path d="M18.7798 18.024H0V21H18.7798V18.024Z" fill="#7E8888"/>
<path d="M9.77667 0L0 6.02342V7.79454H19.1201V6.02342L9.77667 0Z" fill="#7E8888"/>
<path d="M1.95117 16.4317V17.4767H2.48685H5.45281H5.98849V16.4317H5.45281V9.42096H5.98849V8.37598H5.45281H2.48685H1.95117V9.42096H2.48685V16.4317H1.95117Z" fill="#7E8888"/>
<path d="M7.48926 16.4317V17.4767H8.0247H10.9909H11.5266V16.4317H10.9909V9.42096H11.5266V8.37598H10.9909H8.0247H7.48926V9.42096H8.0247V16.4317H7.48926Z" fill="#7E8888"/>
<path d="M13.0278 16.4317V17.4767H13.5635H16.5297H17.0654V16.4317H16.5297V9.42096H17.0654V8.37598H16.5297H13.5635H13.0278V9.42096H13.5635V16.4317H13.0278Z" fill="#7E8888"/>
</svg>
