<svg width="18" height="24" viewBox="0 0 18 24" fill="none" xmlns="http://www.w3.org/2000/svg">
<path d="M17 0C15.45 0 14 4.83125 14 10C14 13.5625 16 15 16 15V23C16 23.55 16.45 24 17 24C17.55 24 18 23.55 18 23V0.6875C18 0 17.3125 0 17 0Z" fill="#7E8888"/>
<path d="M11 0L11.625 6.5C11.625 6.775 11.4 7 11.125 7C10.85 7 10.625 6.775 10.625 6.5L10.25 0H9.75L9.375 6.5C9.375 6.775 9.15 7 8.875 7C8.6 7 8.375 6.775 8.375 6.5L9 0H8.5C8.5 0 7 6.7 7 8C7 9.3 7.8375 10.4125 9 10.825V23C9 23.55 9.45 24 10 24C10.55 24 11 23.55 11 23V10.825C12.1625 10.4125 13 9.3125 13 8C13 6.6875 11.5 0 11.5 0H11Z" fill="#7E8888"/>
<path d="M3 0C1.34375 0 0 4 0 8C0 9.3 0.8375 10.4125 2 10.825V23C2 23.55 2.45 24 3 24C3.55 24 4 23.55 4 23V10.825C5.1625 10.4125 6 9.3125 6 8C6 4 4.65625 0 3 0Z" fill="#7E8888"/>
</svg>
