<svg width="25" height="25" viewBox="0 0 25 25" fill="none" xmlns="http://www.w3.org/2000/svg">
<path d="M6.46484 22.683C6.74707 22.683 7.01186 22.6025 7.24373 22.4755V24.09H7.76447V22.3659C8.03286 22.5626 8.36129 22.6838 8.72127 22.6838C9.49684 22.6838 10.1426 22.1385 10.3015 21.411C10.5953 21.3637 10.862 21.2389 11.0823 21.0591V20.3582C10.7129 20.4664 10.3374 20.5204 9.95532 20.5204C8.82863 20.5204 7.7819 20.0743 6.98558 19.26C5.43582 18.6314 4.40155 17.1217 4.38494 15.4514C4.11268 15.6993 3.92231 16.0396 3.87417 16.4344C3.82575 16.8199 3.92397 17.1862 4.11572 17.4911C3.78092 17.7883 3.56787 18.2172 3.56787 18.6972C3.56787 19.2719 3.8667 19.773 4.31549 20.0608C4.24881 20.2406 4.20565 20.4321 4.20565 20.6346C4.20565 21.3352 4.65112 21.9243 5.27147 22.1515C5.56919 22.4763 5.99087 22.683 6.46484 22.683Z" fill="#7E8888"/>
<path d="M21.3006 18.2523C21.3006 17.6463 20.9644 17.1217 20.4699 16.8442C20.0173 17.205 19.4871 17.4737 18.9 17.6233C18.3535 19.3222 16.744 20.5189 14.9344 20.5189C14.6146 20.5189 14.298 20.4774 13.9915 20.4024C13.9782 20.4791 13.9707 20.5549 13.9707 20.6346C13.9707 21.3343 14.4156 21.9243 15.0371 22.1506C15.3342 22.4754 15.7568 22.6818 16.2302 22.6818C16.5124 22.6818 16.7778 22.6013 17.0085 22.4746V24.0891H17.5312V22.3639C17.7982 22.5618 18.1258 22.6829 18.4855 22.6829C19.2638 22.6829 19.908 22.1373 20.0668 21.4102C20.8396 21.2862 21.4331 20.6221 21.4331 19.8145C21.4331 19.4802 21.3299 19.1706 21.1578 18.9122C21.2466 18.7105 21.3006 18.4888 21.3006 18.2523Z" fill="#7E8888"/>
<path d="M12.823 18.9056C13.4156 19.343 14.1411 19.6092 14.9344 19.6092C16.6466 19.6092 18.0707 18.4075 18.421 16.8016C20.1263 16.5318 21.4331 15.0667 21.4331 13.2851C21.4331 12.5483 21.2087 11.8646 20.8263 11.2943C21.0252 10.8502 21.1417 10.3591 21.1417 9.84085C21.1417 8.30686 20.1683 7.00973 18.8114 6.50366C19.0936 5.99122 19.2716 5.40934 19.2716 4.78401C19.2716 2.8112 17.6723 1.21136 15.6981 1.21136C14.9917 1.21136 14.3384 1.42275 13.7845 1.77471C13.163 0.718294 12.028 0 10.7132 0C9.02203 0 7.61699 1.17594 7.24373 2.75171C5.70587 2.99105 4.44416 4.20711 4.24245 5.82714C4.13786 6.67853 4.35312 7.48619 4.77702 8.16022C4.04074 8.81459 3.56787 9.75812 3.56787 10.8206C3.56787 12.087 4.22834 13.1902 5.22028 13.8266C5.06976 14.2234 4.9779 14.6467 4.9779 15.0955C4.9779 16.637 5.95794 17.9388 7.32536 18.4399C7.98056 19.1538 8.91053 19.61 9.9556 19.61C10.582 19.61 11.1639 19.4357 11.6747 19.1518V24.3683H4.83429V25H19.667V24.3683H12.8219V18.9056H12.823Z" fill="#7E8888"/>
</svg>
