<svg width="70" height="84" viewBox="0 0 70 84" fill="none" xmlns="http://www.w3.org/2000/svg">
<path fill-rule="evenodd" clip-rule="evenodd" d="M35 83.6271C49.0145 69.6769 70 55.9228 70 35.4157C70 16.1786 54.3257 0.576263 35 0.576263C15.6743 0.576263 0 16.1786 0 35.4157C0 55.9228 20.9855 69.6769 35 83.6271Z" fill="#7E8888"/>
<path d="M34.5523 56.0351C22.6792 56.0351 13 46.3559 13 34.4506C13 22.5774 22.6792 12.8983 34.5523 12.8983C46.4254 12.8983 56.1046 22.5774 56.1046 34.4506C56.1369 46.3559 46.4577 56.0351 34.5523 56.0351ZM34.5523 13.8662C23.1954 13.8662 13.9679 23.0937 13.9679 34.4506C13.9679 45.8074 23.1954 55.0349 34.5523 55.0349C45.9092 55.0349 55.1367 45.8074 55.1367 34.4506C55.1689 23.0937 45.9092 13.8662 34.5523 13.8662Z" fill="white"/>
<path d="M40.231 33.8047C40.6504 34.2241 40.8763 34.8049 40.8763 35.3856C40.8763 35.9664 40.6504 36.5471 40.231 36.9666C39.8116 37.386 39.2308 37.6118 38.6501 37.6118C38.0693 37.6118 37.4886 37.386 37.0691 36.9666C36.6497 36.5471 36.4239 35.9987 36.4239 35.3856V35.3211H37.3918V35.3856C37.3918 36.0954 37.9725 36.6439 38.6501 36.6439C39.3276 36.6439 39.9084 36.0632 39.9084 35.3856C39.9084 34.7081 39.3276 34.1273 38.6501 34.1273C38.4242 34.1273 38.1984 34.1919 38.0048 34.2887L37.3918 33.7724L38.9727 31.8043H36.3916V30.8364H41.0053L39.0695 33.224C39.5212 33.2885 39.9084 33.5143 40.231 33.8047Z" fill="white"/>
<path d="M46.9098 37.5479H41.7476C41.7476 37.5479 43.2317 35.8056 43.9738 34.9345C44.3609 34.4828 44.7804 34.0633 45.1353 33.5794C45.3289 33.3213 45.4902 32.9986 45.4256 32.676C45.3611 32.3856 45.1675 32.2243 45.0062 32.0953C44.7804 31.9339 44.5223 31.8694 44.2641 31.8694C43.5221 31.8694 42.9091 32.4824 42.9091 33.2245H41.7798C41.7798 32.5792 42.0379 31.9339 42.4896 31.4822C42.9736 31.0305 43.5866 30.7724 44.2319 30.7724C44.7158 30.7724 45.2321 30.9337 45.6192 31.1919C46.0709 31.5145 46.3936 31.9662 46.4904 32.4502C46.5871 32.9341 46.5226 33.4181 46.2645 33.8698C46.0064 34.3537 45.6192 34.7409 45.2643 35.1603L44.1028 36.5154H46.9098V37.5479Z" fill="white"/>
<path d="M27.0672 24.9972L35.9075 42.6133L33.8749 46.6463L23.0342 24.9972H27.0672Z" fill="white"/>
<path d="M42.5541 27.7719L40.9409 25.0295H44.135L42.5541 27.7719Z" fill="white"/>
</svg>
