<svg width="50" height="59" viewBox="0 0 50 59" fill="none" xmlns="http://www.w3.org/2000/svg">
<path fill-rule="evenodd" clip-rule="evenodd" d="M25 59C35.0104 49.0896 50 39.3187 50 24.7502C50 11.084 38.8041 0 25 0C11.1959 0 0 11.084 0 24.7502C0 39.3187 14.9896 49.0896 25 59Z" fill="#ABB2B2"/>
<path d="M32.1865 22.0827C30.8108 21.0512 29.1864 20.9286 28.0514 20.8656C29.024 19.9268 29.6276 18.626 29.6288 17.1873C29.6288 16.9389 29.6047 16.6962 29.5702 16.457C30.4224 16.2253 31.0506 15.4484 31.0506 14.523C31.0518 13.4138 30.1529 12.5146 29.044 12.514C28.4797 12.5137 27.9705 12.7472 27.6052 13.1217C26.698 12.4221 25.554 12.0006 24.3076 12C23.05 11.9994 21.8959 12.426 20.9842 13.1354C20.6186 12.7502 20.1032 12.5086 19.53 12.5086C18.4214 12.508 17.5219 13.4064 17.5216 14.5153C17.5207 15.4549 18.1667 16.242 19.0386 16.4612C19.0047 16.6971 18.9812 16.9362 18.9809 17.181C18.98 18.5603 19.5365 19.8111 20.4384 20.7403C19.4119 20.7153 18.1748 20.8147 17.018 21.4753C15.2077 22.5069 15.8764 25.363 18.5112 25.0968C18.8693 25.0605 19.2013 25.0001 19.5225 24.9279C19.3928 25.1944 19.2724 25.4871 19.1709 25.8178C19.0424 26.239 18.991 26.806 19.0853 27.4074C18.5044 29.196 18.4083 31.647 18.8164 33.3871C19.4214 35.9654 22.34 35.6694 22.7267 33.6215C22.8938 32.7416 22.79 31.6869 22.5878 30.6871C23.0708 30.7832 23.6134 30.8382 24.2235 30.8403C24.8157 30.8427 25.344 30.7939 25.8163 30.7068C25.6271 31.7118 25.5382 32.7714 25.719 33.6509C26.1358 35.6926 29.0576 35.9461 29.6252 33.3597C29.9916 31.6872 29.8864 29.37 29.3438 27.6133C29.4797 26.9517 29.4348 26.3176 29.2971 25.8565C29.2156 25.582 29.1204 25.3339 29.0181 25.1045C29.4006 25.258 29.8078 25.3871 30.2543 25.49C32.8347 26.0817 33.8538 23.3317 32.1865 22.0827ZM29.0434 13.4709C29.6231 13.4712 30.0928 13.9418 30.0925 14.5218C30.0925 14.9965 29.776 15.3927 29.3435 15.5227C29.1168 14.8713 28.7614 14.2791 28.306 13.7728C28.4961 13.5866 28.756 13.4706 29.0434 13.4709ZM26.6899 16.0094C27.0177 16.0097 27.2833 16.2821 27.2831 16.6191C27.2831 16.9555 27.0168 17.2277 26.6893 17.2277C26.3615 17.2274 26.0956 16.9547 26.0962 16.6182C26.0965 16.2815 26.3624 16.0091 26.6899 16.0094ZM24.3234 16.7854C24.6414 16.7851 24.9483 16.8387 25.2306 16.935C25.5944 17.0573 25.9169 17.2527 26.1858 17.496C26.5513 17.8369 26.8116 18.2739 26.91 18.7652C26.9407 18.908 26.9556 19.0579 26.9559 19.2114C26.955 19.5719 26.8696 19.9131 26.7194 20.2201C26.5855 20.4845 26.4035 20.7225 26.1846 20.925C25.9145 21.1728 25.5926 21.3641 25.2283 21.4863C24.946 21.5827 24.6387 21.6342 24.3201 21.6336C24.0408 21.6339 23.7725 21.5946 23.5191 21.5208C23.1128 21.4004 22.7523 21.1942 22.4584 20.9233C22.2377 20.7201 22.0547 20.4824 21.9236 20.2177C21.7707 19.9104 21.6871 19.569 21.6868 19.2082C21.6871 19.0553 21.7026 18.905 21.7302 18.7623C21.8299 18.2712 22.0901 17.8339 22.4602 17.4936C22.7546 17.2241 23.1149 17.0183 23.5215 16.9014C23.7755 16.8244 24.0435 16.7854 24.3234 16.7854ZM21.8834 16.0064C22.2115 16.0064 22.4771 16.2794 22.4765 16.6162C22.4765 16.9529 22.2106 17.225 21.8828 17.2247C21.5547 17.2247 21.2891 16.9517 21.2894 16.615C21.2894 16.2788 21.5553 16.0061 21.8834 16.0064ZM19.2623 15.5287C18.8113 15.4103 18.4773 15.0037 18.4776 14.5156C18.4779 13.9352 18.9484 13.4652 19.5288 13.4655C19.8268 13.4655 20.0942 13.5908 20.2852 13.7901C19.8363 14.2942 19.4862 14.8823 19.2623 15.5287ZM24.1443 29.6443C22.5527 29.6434 21.2635 28.1421 21.2647 26.2911C21.2659 24.44 22.5568 22.9397 24.1485 22.9406C25.7402 22.9418 27.0296 24.4433 27.0284 26.2941C27.0272 28.1451 25.736 29.6451 24.1443 29.6443Z" fill="white"/>
<path d="M23.7664 19.5675C23.7741 19.5675 23.9133 19.5675 24.0638 19.4893C24.1168 19.4622 24.1703 19.425 24.2206 19.3753C24.2596 19.3367 24.2926 19.2927 24.3211 19.2448C24.3503 19.2947 24.3836 19.3414 24.4241 19.3813C24.6117 19.5678 24.8506 19.5678 24.8598 19.5678C25.005 19.5681 25.1225 19.5366 25.2177 19.4872C25.4413 19.3718 25.5377 19.1582 25.5585 19.0267C25.5687 18.964 25.5261 18.9057 25.4634 18.8953C25.4006 18.8851 25.3414 18.9277 25.3304 18.9901C25.3241 19.0255 25.2584 19.3373 24.8592 19.337C24.8574 19.3373 24.7051 19.3352 24.5874 19.2177C24.4886 19.1192 24.4386 18.9666 24.4386 18.7632C24.4386 18.729 24.4383 18.7019 24.4383 18.6725C24.4791 18.6543 24.5252 18.6273 24.5784 18.5856C24.5784 18.5856 25.0811 18.1778 25.204 17.8527C25.2162 17.82 25.2278 17.7944 25.2319 17.7682L25.2361 17.7655C25.2361 17.7655 25.267 17.5838 25.1124 17.5523C24.9607 17.5213 24.3574 17.3143 23.5689 17.5445C23.5689 17.5445 23.5299 17.557 23.5094 17.5695C23.4785 17.5856 23.4029 17.6311 23.4074 17.7316C23.4077 17.7352 23.4074 17.7385 23.408 17.7423C23.408 17.7432 23.408 17.7441 23.408 17.7447C23.4106 17.7756 23.419 17.8104 23.4389 17.85C23.5091 17.9949 23.7221 18.2682 23.9395 18.4699C24.0281 18.5568 24.1198 18.6273 24.2075 18.6689C24.2075 18.6972 24.2078 18.7278 24.2078 18.7623C24.2072 19.3167 23.8134 19.3352 23.7679 19.3355C23.3693 19.3352 23.3042 19.0241 23.2979 18.9884C23.2878 18.9259 23.2289 18.8831 23.1661 18.8929C23.1028 18.903 23.0599 18.9622 23.0698 19.0249C23.0986 19.2126 23.2824 19.5669 23.7664 19.5675Z" fill="white"/>
</svg>
