<svg width="50" height="59" viewBox="0 0 50 59" fill="none" xmlns="http://www.w3.org/2000/svg">
<path fill-rule="evenodd" clip-rule="evenodd" d="M25 59C35.0104 49.0896 50 39.3187 50 24.7502C50 11.084 38.8041 0 25 0C11.1959 0 0 11.084 0 24.7502C0 39.3187 14.9896 49.0896 25 59Z" fill="#ABB2B2"/>
<path d="M26.5828 14.9771C26.6967 14.9771 26.8106 14.9338 26.8975 14.8469L28.9109 12.8334C29.0847 12.6599 29.0847 12.3779 28.9109 12.2045C28.7372 12.0307 28.4558 12.0307 28.282 12.2045L26.2685 14.2179C26.0947 14.3914 26.0947 14.6734 26.2685 14.8469C26.3551 14.9338 26.469 14.9771 26.5828 14.9771Z" fill="white"/>
<path d="M28.5282 17.1065C28.6151 17.1934 28.729 17.2367 28.8429 17.2367C28.9567 17.2367 29.0706 17.1934 29.1575 17.1065L31.429 14.835C31.6027 14.6616 31.6027 14.3798 31.429 14.2061C31.2552 14.0323 30.9738 14.0323 30.8 14.2061L28.5285 16.4775C28.3545 16.651 28.3545 16.9327 28.5282 17.1065Z" fill="white"/>
<path d="M32.2083 13.871C32.3222 13.871 32.4361 13.8277 32.523 13.7408L33.5045 12.7593C33.6783 12.5858 33.6783 12.3038 33.5045 12.1303C33.3307 11.9566 33.0493 11.9566 32.8755 12.1303L31.894 13.1119C31.7202 13.2853 31.7202 13.5673 31.894 13.7408C31.9809 13.8274 32.0948 13.871 32.2083 13.871Z" fill="white"/>
<path d="M37.8691 12.2845C37.6954 12.1108 37.414 12.1108 37.2402 12.2845L30.7876 18.7372C30.6138 18.9106 30.6138 19.1926 30.7876 19.3661C30.8744 19.453 30.9883 19.4963 31.1022 19.4963C31.216 19.4963 31.3299 19.453 31.4168 19.3661L37.8694 12.9135C38.0429 12.7397 38.0429 12.458 37.8691 12.2845Z" fill="white"/>
<path d="M30.5136 24.2539C30.4149 23.1787 30.134 22.1435 29.6789 21.1773C29.6786 21.1767 29.6786 21.1765 29.6783 21.1759C29.2281 20.2151 28.6152 19.3427 27.8584 18.5862C27.7048 18.429 27.5563 18.2912 27.4151 18.1731C26.9831 17.79 26.5095 17.4442 26.0069 17.1453C26.0063 17.145 26.006 17.1447 26.0057 17.1444C25.7219 16.9769 25.4476 16.8331 25.1677 16.7053C24.3549 16.3313 23.4916 16.0796 22.6011 15.9568C22.3965 15.9289 22.1919 15.9073 21.9834 15.8916C21.8097 15.8791 21.6255 15.9174 21.4713 15.9156C20.8836 15.9031 20.292 15.7955 19.7147 16.092C19.7132 16.092 19.712 16.092 19.7105 16.092C18.5362 16.092 17.4298 16.6039 16.4249 17.2322C15.9392 17.5311 15.4736 17.8713 15.0415 18.1678H15.0412C15.0409 18.1678 15.0406 18.2372 15.0404 18.2375C15.0395 18.2384 15.0383 18.2737 15.0371 18.2748C15.0368 18.2751 15.0368 18.2926 15.0365 18.2926C14.9431 18.3766 14.85 18.472 14.7601 18.5622C14.7183 18.604 14.6741 18.6535 14.6347 18.7016C13.9372 19.4233 13.3231 20.2435 12.9014 21.134C12.4869 21.9973 12.3318 22.918 12.0353 23.8663C12.0353 23.8663 12.0353 23.8666 12.0353 23.8669C12.0353 24.3873 11.9851 24.9232 12.0044 25.4703L12.0456 25.7864C12.1091 26.7083 12.3181 27.5991 12.6429 28.4354C12.6432 28.436 12.6488 28.4365 12.6491 28.4374C12.6497 28.4392 12.6535 28.441 12.6541 28.4428C12.6547 28.4443 12.6565 28.446 12.6571 28.4475C12.6574 28.4478 12.6583 28.4484 12.6586 28.4487C12.7318 28.6492 12.8193 28.8553 12.9258 29.0783C13.2943 29.8564 13.7706 30.5787 14.35 31.2361C14.3699 31.2596 14.39 31.2821 14.4117 31.3038C14.5128 31.4242 14.6261 31.5472 14.748 31.6691C15.3271 32.2482 15.9798 32.7482 16.6974 33.1601C16.7303 33.1791 16.7632 33.1971 16.7961 33.2143C16.7973 33.2149 16.7985 33.2161 16.7997 33.2167C17.9586 33.8646 19.279 34.257 20.6155 34.3513C20.8329 34.3679 21.0535 34.3762 21.2744 34.3762C21.385 34.3762 21.4959 34.3738 21.6063 34.3699C21.6074 34.3699 21.6086 34.3696 21.6098 34.3694C22.6444 34.3373 23.6547 34.1354 24.6128 33.7686C24.7599 33.7125 24.9064 33.6526 25.0535 33.5874C25.0677 33.5809 25.0817 33.5737 25.095 33.566C25.9923 33.1657 26.8176 32.6225 27.5482 31.9508C27.5601 31.941 27.572 31.9292 27.5835 31.9182C27.6648 31.8503 27.7451 31.7732 27.8136 31.7017L27.7884 31.6756C28.9334 30.5337 29.8268 29.1118 30.1234 27.5635C30.1234 27.5633 30.1234 27.5632 30.1234 27.563C30.1234 27.5627 30.1234 27.6567 30.1234 27.6567H30.175H30.2008C30.2868 27.3601 30.3677 26.9788 30.4161 26.6739C30.4169 26.6686 30.4241 26.6398 30.4247 26.6345C30.5424 25.9302 30.5783 25.1921 30.5258 24.4751C30.5231 24.4066 30.5198 24.323 30.5136 24.2539ZM27.2265 19.2119C27.8566 19.842 28.3691 20.5611 28.764 21.3449L27.0252 24.1406L24.5541 24.3814L22.2219 21.8718L22.5347 19.6428L25.9704 18.2446C25.9876 18.2378 26.0006 18.2253 26.0166 18.2167C26.2992 18.4113 26.575 18.617 26.8345 18.8472C26.9632 18.9548 27.0904 19.0728 27.2265 19.2119ZM16.6396 28.7046L13.4138 27.9114C13.1656 27.2175 13.0085 26.485 12.9566 25.7307L12.9391 25.4294C12.9252 25.0276 12.9456 24.6287 12.9865 24.2364L15.9119 23.0449L17.8142 23.9553L18.2168 27.3011L16.6396 28.7046ZM16.8937 18.0112C17.7329 17.4867 18.6489 17.1237 19.6183 16.9256L21.6762 19.3616L21.3459 21.715L18.2204 23.1632L16.303 22.2458L16.0403 18.666C16.0394 18.6523 16.0332 18.6405 16.0311 18.6271C16.3075 18.4021 16.5954 18.1948 16.8937 18.0112ZM17.4423 32.5495L17.2095 29.3887L18.7906 27.9823L22.1907 28.6539L22.9164 30.5603L21.1021 33.4845C20.9613 33.4815 20.8204 33.4753 20.6808 33.4646C19.5335 33.3834 18.4458 33.0738 17.4423 32.5495ZM27.3131 30.9381L23.6707 30.0426L23.0012 28.2829L24.6861 25.2627L27.1672 25.021L29.3017 27.549C28.923 28.8152 28.2407 29.9794 27.3131 30.9381Z" fill="white"/>
</svg>
