<svg width="50" height="59" viewBox="0 0 50 59" fill="none" xmlns="http://www.w3.org/2000/svg">
<path fill-rule="evenodd" clip-rule="evenodd" d="M25 59C35.0104 49.0896 50 39.3187 50 24.7502C50 11.084 38.8041 0 25 0C11.1959 0 0 11.084 0 24.7502C0 39.3187 14.9896 49.0896 25 59Z" fill="#ABB2B2"/>
<path d="M29.65 30.85C29.6437 31.1297 29.6933 31.4078 29.7959 31.668C29.8986 31.9282 30.0521 32.1653 30.2477 32.3654C30.4432 32.5654 30.6767 32.7244 30.9345 32.8329C31.1923 32.9415 31.4692 32.9975 31.7489 32.9975C32.0287 32.9976 32.3056 32.9418 32.5634 32.8334C32.8213 32.7249 33.0549 32.5661 33.2505 32.3661C33.4462 32.1662 33.5999 31.9292 33.7026 31.669C33.8054 31.4088 33.8551 31.1308 33.8489 30.8511C33.8368 30.3024 33.6104 29.7803 33.2181 29.3965C32.8258 29.0126 32.2988 28.7977 31.75 28.7975C31.2012 28.7974 30.6741 29.0121 30.2816 29.3957C29.8891 29.7793 29.6624 30.3014 29.65 30.85ZM19.15 30.85C19.15 31.407 19.3712 31.9411 19.7651 32.335C20.1589 32.7288 20.693 32.95 21.25 32.95C21.807 32.95 22.3411 32.7288 22.7349 32.335C23.1288 31.9411 23.35 31.407 23.35 30.85C23.35 30.2931 23.1288 29.759 22.7349 29.3651C22.3411 28.9713 21.807 28.75 21.25 28.75C20.693 28.75 20.1589 28.9713 19.7651 29.3651C19.3712 29.759 19.15 30.2931 19.15 30.85ZM22.8743 25.7806L34.4957 22.4605C34.6094 22.4226 34.7089 22.3512 34.781 22.2556C34.8532 22.16 34.8947 22.0447 34.9 21.925V16.15H20.2V14.47C20.2 14.239 20.0099 14.05 19.781 14.05H16.4189C16.3078 14.0506 16.2014 14.0951 16.1229 14.1737C16.0445 14.2524 16.0003 14.3589 16 14.47V16.15H18.1L20.1055 25.5549L20.2 26.545V28.2765C20.2 28.5064 20.389 28.6965 20.62 28.6965H34.48C34.711 28.6965 34.9 28.5054 34.9 28.2765V26.65H23.0896C21.8821 26.65 21.8569 26.0715 22.8743 25.7806Z" fill="white"/>
</svg>
