<svg width="50" height="59" viewBox="0 0 50 59" fill="none" xmlns="http://www.w3.org/2000/svg">
<path fill-rule="evenodd" clip-rule="evenodd" d="M25 59C35.0104 49.0896 50 39.3187 50 24.7502C50 11.084 38.8041 0 25 0C11.1959 0 0 11.084 0 24.7502C0 39.3187 14.9896 49.0896 25 59Z" fill="#ABB2B2"/>
<path d="M34.0958 35.01L33.2094 17.8904C33.1847 17.414 32.7913 17.0405 32.3144 17.0405H29.6987V16.1992C29.6987 13.3323 27.3662 11 24.4992 11C21.6324 11 19.3002 13.3323 19.3002 16.1992V17.0405H16.6845C16.2075 17.0405 15.814 17.414 15.7893 17.8904L14.9006 35.0574C14.888 35.3027 14.9765 35.5427 15.1458 35.7209C15.315 35.899 15.5499 36 15.7957 36H33.2033C33.2036 36.0001 33.204 36.0001 33.2044 36C33.6994 36 34.1006 35.5987 34.1006 35.1038C34.1005 35.072 34.099 35.0407 34.0958 35.01ZM20.577 20.6682C20.0468 20.6682 19.6169 20.2383 19.6169 19.7081C19.6169 19.178 20.0468 18.7481 20.577 18.7481C21.1071 18.7481 21.537 19.178 21.537 19.7081C21.537 20.2383 21.1071 20.6682 20.577 20.6682ZM27.0323 17.0405H21.9665V16.1992C21.9665 14.8025 23.1027 13.6663 24.4992 13.6663C25.896 13.6663 27.0323 14.8025 27.0323 16.1992V17.0405ZM28.423 20.6682C27.8928 20.6682 27.4629 20.2383 27.4629 19.7081C27.4629 19.178 27.8928 18.7481 28.423 18.7481C28.9531 18.7481 29.383 19.178 29.383 19.7081C29.383 20.2383 28.9531 20.6682 28.423 20.6682Z" fill="white"/>
</svg>
