<svg width="50" height="59" viewBox="0 0 50 59" fill="none" xmlns="http://www.w3.org/2000/svg">
<path fill-rule="evenodd" clip-rule="evenodd" d="M25 59C35.0104 49.0896 50 39.3187 50 24.7502C50 11.084 38.8041 0 25 0C11.1959 0 0 11.084 0 24.7502C0 39.3187 14.9896 49.0896 25 59Z" fill="#ABB2B2"/>
<path d="M33.7798 31.024H15V34H33.7798V31.024Z" fill="white"/>
<path d="M24.7767 13L15 19.0234V20.7945H34.1201V19.0234L24.7767 13Z" fill="white"/>
<path d="M16.9512 29.4317V30.4767H17.4869H20.4528H20.9885V29.4317H20.4528V22.421H20.9885V21.376H20.4528H17.4869H16.9512V22.421H17.4869V29.4317H16.9512Z" fill="white"/>
<path d="M22.4893 29.4317V30.4767H23.0247H25.9909H26.5266V29.4317H25.9909V22.421H26.5266V21.376H25.9909H23.0247H22.4893V22.421H23.0247V29.4317H22.4893Z" fill="white"/>
<path d="M28.0278 29.4317V30.4767H28.5635H31.5297H32.0654V29.4317H31.5297V22.421H32.0654V21.376H31.5297H28.5635H28.0278V22.421H28.5635V29.4317H28.0278Z" fill="white"/>
</svg>
