<svg width="21" height="19" viewBox="0 0 21 19" fill="none" xmlns="http://www.w3.org/2000/svg">
<path fill-rule="evenodd" clip-rule="evenodd" d="M17.7587 3.94502L16.1849 2.40002L11.0937 7.43877C10.5249 6.76877 9.94617 6.10002 9.38867 5.46252L14.2399 0.602517C14.8662 -0.0237334 15.9212 0.0112666 16.5949 0.682517L19.1012 3.17002C19.7737 3.84127 19.7387 4.74627 19.1112 5.37377L13.7849 10.7175C13.3887 10.2063 12.9437 9.65377 12.4712 9.07877L17.7587 3.94502ZM20.79 16.3025L20.7761 16.3074C20.1255 16.5328 18.857 16.9723 17.4 14.5075C15.9325 12.0275 13.9925 12.6038 13.9925 12.6038C13.9033 12.6192 13.825 12.6464 13.7465 12.6736C13.7294 12.6795 13.7123 12.6855 13.695 12.6913C11.505 9.57255 5.34629 2.78004 4.80379 2.23629C4.02504 1.45879 2.71754 0.728794 1.62379 1.87504C0.595045 2.95254 1.12254 4.3588 1.90129 5.13755C2.44879 5.68505 9.27879 11.875 12.3963 14.0575C12.3449 14.1928 12.3129 14.3346 12.3013 14.4788C12.3013 19.0363 16.9625 18.795 17.9263 18.6188C19.645 18.3075 21.4363 16.0813 20.79 16.3025ZM8.01662 13.4125L7.73287 14.3525L8.34037 14.96L3.57662 17.03L2.63912 16.1313L4.79037 11.5975L4.76787 12.48L6.01537 12.4625L7.08162 11.4063C6.41912 10.8438 5.75912 10.2738 5.12912 9.7225L4.08662 10.7663C4.08662 10.7663 1.19662 17.4163 1.00037 17.9538C0.844125 18.3788 1.38287 18.9175 1.75537 18.735C2.35537 18.4388 8.93037 15.585 8.93037 15.585L10.3904 14.12C9.81654 13.6726 9.24939 13.2168 8.68912 12.7525L8.01662 13.4125Z" fill="#7E8888"/>
</svg>
