<svg width="21" height="25" viewBox="0 0 21 25" fill="none" xmlns="http://www.w3.org/2000/svg">
<path d="M20.0958 24.01L19.2094 6.89036C19.1847 6.41404 18.7913 6.04048 18.3144 6.04048H15.6987V5.1992C15.6987 2.33234 13.3662 0 10.4992 0C7.63239 0 5.30018 2.33234 5.30018 5.1992V6.04048H2.68445C2.20747 6.04048 1.81398 6.41404 1.78929 6.89036L0.900604 24.0574C0.887958 24.3027 0.976548 24.5427 1.14578 24.7209C1.31495 24.899 1.54993 25 1.79571 25H19.2033C19.2036 25.0001 19.204 25.0001 19.2044 25C19.6994 25 20.1006 24.5987 20.1006 24.1038C20.1005 24.072 20.099 24.0407 20.0958 24.01ZM6.57699 9.66816C6.04684 9.66816 5.61693 9.23826 5.61693 8.70811C5.61693 8.17796 6.04684 7.74805 6.57699 7.74805C7.10714 7.74805 7.53704 8.17796 7.53704 8.70811C7.53704 9.23826 7.10714 9.66816 6.57699 9.66816ZM13.0323 6.04048H7.96649V5.1992C7.96649 3.80249 9.10266 2.66631 10.4992 2.66631C11.896 2.66631 13.0323 3.80249 13.0323 5.1992V6.04048ZM14.423 9.66816C13.8928 9.66816 13.4629 9.23826 13.4629 8.70811C13.4629 8.17796 13.8928 7.74805 14.423 7.74805C14.9531 7.74805 15.383 8.17796 15.383 8.70811C15.383 9.23826 14.9531 9.66816 14.423 9.66816Z" fill="#7E8888"/>
</svg>
