<svg width="43" height="41" viewBox="0 0 43 41" fill="none" xmlns="http://www.w3.org/2000/svg">
<path d="M28.6027 40.8638C25.5978 40.8638 22.4735 40.5888 19.7721 40.2891L19.5351 40.2633C19.2846 40.2357 19.0902 40.0329 19.0719 39.7819C19.0523 39.5065 19.0265 39.1885 18.9979 38.8344C18.6214 34.1393 17.8383 24.3692 22.1503 20.2197C24.685 17.7806 27.6463 17.0945 30.2761 18.3379C32.9156 19.5861 34.7173 22.5052 34.7211 25.4314C37.6482 25.5476 40.4976 27.4631 41.6427 30.1528C42.7827 32.828 41.9818 35.7584 39.4453 38.1937C37.3031 40.2516 33.0866 40.8638 28.6027 40.8638ZM20.0798 39.2742C24.0214 39.7098 35.1421 40.8792 38.724 37.4416C40.9627 35.2928 41.6582 32.8495 40.684 30.5621C39.6457 28.1244 36.853 26.3639 34.2012 26.4744C34.064 26.4819 33.9085 26.4225 33.8046 26.3152C33.701 26.208 33.6486 26.0609 33.6603 25.9124C33.8697 23.264 32.223 20.4136 29.8307 19.2821C27.5812 18.2185 25.1112 18.8199 22.8744 20.9724C18.9183 24.779 19.7033 34.5707 20.0391 38.7515C20.0531 38.9356 20.0672 39.1103 20.0798 39.2742Z" fill="#7A7979"/>
<path d="M16.4539 12.8307C16.2867 12.8307 16.1228 12.7506 16.0216 12.6021C15.8601 12.3637 15.9219 12.0392 16.1603 11.8776L28.4926 3.51254C28.7306 3.35049 29.0551 3.41278 29.2167 3.65117C29.3787 3.88955 29.3165 4.21411 29.0781 4.37569L16.7462 12.7407C16.6562 12.8016 16.5546 12.8307 16.4539 12.8307Z" fill="#7A7979"/>
<path d="M6.74841 21.8191C6.62945 21.8191 6.50955 21.8079 6.39013 21.784C5.91242 21.6894 5.50075 21.4144 5.22958 21.0098C4.95934 20.6052 4.8624 20.1195 4.95747 19.6418C5.15277 18.6569 6.11474 18.0162 7.09873 18.2096C8.08412 18.4049 8.72715 19.3659 8.53138 20.3513C8.43678 20.829 8.16186 21.2407 7.75768 21.5114C7.4542 21.7142 7.10528 21.8191 6.74841 21.8191ZM6.74466 19.1111C6.33065 19.1111 5.95972 19.4034 5.87636 19.824C5.82999 20.0563 5.87729 20.2923 6.0089 20.4885C6.14003 20.6852 6.34048 20.8187 6.57231 20.8646C6.80367 20.9105 7.04018 20.8637 7.23689 20.7321C7.43359 20.6005 7.56707 20.4005 7.61343 20.1687C7.70804 19.69 7.39612 19.2226 6.91748 19.128C6.85894 19.1172 6.80133 19.1111 6.74466 19.1111Z" fill="#7A7979"/>
<path d="M35.386 18.0883C34.2452 16.8373 32.8495 16.1789 31.3433 16.1789C31.3058 16.1789 31.2684 16.1793 31.2314 16.1803C28.9538 16.2294 26.5236 17.7211 24.2048 20.4946C23.5843 21.2374 23.0654 21.8842 22.5905 22.4771C21.1798 24.2362 20.1607 25.5073 17.9736 27.3797C15.3677 29.6109 10.9091 30.7316 7.95902 28.7416C6.78348 27.9487 6.15216 26.9779 5.81402 26.0777C6.37509 26.31 6.96567 26.4931 7.58388 26.6158C8.20022 26.7381 8.81374 26.7971 9.41931 26.7971C13.8198 26.7971 17.7637 23.6892 18.6522 19.2128C18.8995 17.9646 18.8826 16.7128 18.6288 15.4843L24.6329 11.4495C24.7828 11.3301 24.8198 11.2608 24.854 11.1128C24.8544 11.1119 24.8549 11.1109 24.8549 11.11L25.134 9.58039L26.6604 9.88341C26.7999 9.91198 26.9381 9.88013 27.0486 9.8066L27.0491 9.80707L28.2752 8.99871L28.271 8.99216C28.3946 8.91067 28.4874 8.78374 28.5061 8.62498L28.6119 7.73466L29.3781 7.83395C29.5898 7.84519 29.7636 7.73091 29.7636 7.73091L31.5377 6.53898L32.5404 1.48371V1.48277C32.5825 1.27108 32.4898 1.0636 32.3217 0.949328C32.2655 0.911392 32.2013 0.88376 32.1306 0.86971L27.745 0L13.943 9.13032C12.3956 8.28356 10.6492 7.86064 8.79267 7.99506C4.8305 8.28121 1.38304 11.0519 0.336762 14.8844C-0.813017 19.0957 1.07721 23.322 4.54762 25.4272C4.89607 27.1287 5.88146 28.5993 7.37547 29.6067C8.65076 30.4666 10.1176 30.8337 11.6055 30.8337C14.1884 30.8333 16.8355 29.7275 18.6517 28.1726C20.9133 26.2365 21.9577 24.9331 23.404 23.13C23.8751 22.5422 24.3894 21.9006 25.0052 21.1644C27.095 18.6653 29.3135 17.2654 31.2539 17.2237C32.5076 17.1938 33.6415 17.7239 34.6156 18.7917C35.5036 19.7645 35.7846 21.221 35.4483 22.7071C35.0226 24.5893 33.3047 25.8806 33.0256 26.0599C32.4715 25.5668 31.6899 25.3237 30.8483 25.5611C30.0835 25.777 29.4699 26.4037 29.27 27.1727C29.1285 27.7155 29.1861 28.2363 29.3791 28.685C29.698 29.4353 30.32 29.9799 31.4239 30.0825C32.7254 30.2033 33.8059 29.0737 33.8059 27.7764C33.8059 27.4696 33.7431 27.1779 33.634 26.91C33.8433 26.7732 35.7832 25.6108 36.4609 22.9576C36.9241 21.1428 36.5091 19.3191 35.386 18.0883ZM5.48852 24.7636C5.30774 23.277 5.72269 21.7292 6.54603 20.8197C6.73946 20.6061 6.72307 20.2764 6.5095 20.083C6.29594 19.8895 5.96623 19.9059 5.7728 20.1195C4.89466 21.0894 4.40243 22.5572 4.40805 24.0816C3.65777 23.5201 2.9946 22.8368 2.45835 22.0345C1.21443 20.1747 0.769041 17.9431 1.20413 15.7508C1.63922 13.558 2.9028 11.6659 4.76212 10.422C6.62097 9.17809 8.85355 8.7327 11.0459 9.16778C11.9699 9.35091 12.8494 9.68483 13.6601 10.1593C13.6667 10.163 13.6747 10.163 13.6812 10.1668C13.7679 10.2248 13.8681 10.259 13.9711 10.259C14.0699 10.259 14.1697 10.2309 14.2582 10.1724L27.9624 1.10622L31.4154 1.79094L30.5977 5.91234L29.3163 6.77315L27.6996 6.56427L27.4978 8.26014L26.6524 8.81746L24.2971 8.35006L23.8681 10.7053L17.7609 14.8094C17.7572 14.8118 17.7558 14.8169 17.7516 14.8188C17.4598 14.9659 17.5441 15.3635 17.5455 15.3682C17.8429 16.5634 17.8705 17.7885 17.6284 19.009C17.1933 21.2018 15.9297 23.0939 14.0704 24.3378C12.2106 25.5817 9.97804 26.0257 7.78667 25.5925C6.9741 25.4309 6.20321 25.1546 5.49086 24.7776C5.49039 24.7734 5.48899 24.7682 5.48852 24.7636ZM31.4988 29.0405C30.8014 29.0405 30.2347 28.4738 30.2347 27.7764C30.2347 27.079 30.8014 26.5123 31.4988 26.5123C31.6594 26.5123 31.8121 26.5456 31.9536 26.6004C31.9184 26.614 31.8856 26.6318 31.8501 26.6449C31.5789 26.7423 31.4384 27.0411 31.5363 27.3123C31.6337 27.5839 31.9339 27.7253 32.2037 27.6261C32.3755 27.5642 32.538 27.4856 32.7029 27.4111C32.7385 27.5277 32.7633 27.6485 32.7633 27.7764C32.7629 28.4733 32.1962 29.0405 31.4988 29.0405Z" fill="#7A7979"/>
</svg>
