<svg width="39" height="39" viewBox="0 0 39 39" fill="none" xmlns="http://www.w3.org/2000/svg">
<path d="M38.5125 31.2818H38.162V12.6518C38.162 12.3822 37.9436 12.1643 37.6745 12.1643H36.4923V1.79597C36.4923 0.805848 35.687 0 34.6968 0H30.7515C29.7614 0 28.956 0.80536 28.956 1.79597V12.1643H27.7739C27.5048 12.1643 27.2864 12.3822 27.2864 12.6518V31.2823H21.7908V29.9183C24.5174 28.6356 26.2621 25.9085 26.2621 22.8826C26.2621 20.0867 24.7465 17.4922 22.3061 16.1126C21.7693 15.8093 21.413 15.2463 21.3359 14.6057H21.4973C21.7664 14.6057 21.9848 14.3878 21.9848 14.1182V5.31333C21.9848 4.3817 21.2267 3.62315 20.2946 3.62315H16.6671C15.735 3.62315 14.977 4.3817 14.977 5.31333V14.1187C14.977 14.3883 15.1954 14.6062 15.4645 14.6062H15.6253C15.5469 15.2458 15.1822 15.8132 14.6328 16.1257C12.012 17.6194 10.512 20.4187 10.7187 23.43C10.9083 26.1947 12.6433 28.7044 15.171 29.9109V31.2818H9.02363V20.3519C9.02363 20.0823 8.80523 19.8644 8.53613 19.8644H8.32748V10.6691C8.32748 10.3995 8.10908 10.1816 7.83998 10.1816H7.55089V3.08494C7.55089 2.58476 7.30324 2.11919 6.88789 1.83936C6.47302 1.56051 5.94848 1.50591 5.52971 1.67848L3.69037 2.22595C2.85236 2.56623 2.31075 3.37159 2.31075 4.27592V10.1811H2.02166C1.75256 10.1811 1.53416 10.399 1.53416 10.6686V19.8639H1.32551C1.05641 19.8639 0.838012 20.0818 0.838012 20.3514V31.2813H0.4875C0.2184 31.2813 0 31.4992 0 31.7688V38.5125C0 38.7821 0.2184 39 0.4875 39H38.5125C38.7816 39 39 38.7821 39 38.5125V31.7693C39 31.5002 38.7816 31.2818 38.5125 31.2818ZM29.931 1.79597C29.931 1.34308 30.2991 0.975012 30.7515 0.975012H34.6968C35.1492 0.975012 35.5173 1.34308 35.5173 1.79597V12.1643H29.931V1.79597ZM28.2618 13.1393H32.2369V24.349C32.2369 24.6186 32.4553 24.8365 32.7244 24.8365C32.9935 24.8365 33.2119 24.6186 33.2119 24.349V13.1393H37.187V31.2823H28.2618V13.1393ZM15.9525 5.31333C15.9525 4.91894 16.2732 4.59816 16.6676 4.59816H20.2951C20.6895 4.59816 21.0103 4.91894 21.0103 5.31333V13.6312H15.9525V5.31333ZM15.8501 29.1475C13.496 28.1428 11.8638 25.8724 11.6917 23.3632C11.5109 20.7283 12.8232 18.279 15.1154 16.973C15.9676 16.4879 16.517 15.5958 16.6003 14.6062H17.9936V24.2544C17.9936 24.524 18.212 24.7419 18.4811 24.7419C18.7502 24.7419 18.9686 24.524 18.9686 24.2544V14.6057H20.3614C20.4438 15.5987 20.9859 16.4865 21.8268 16.9613C23.9611 18.1684 25.2876 20.4372 25.2876 22.8826C25.2876 25.6243 23.6496 28.0852 21.1146 29.1519C20.9337 29.2279 20.8163 29.4054 20.8163 29.6014V31.2818H16.1465V29.596C16.1465 29.401 16.0295 29.2245 15.8501 29.1475ZM3.28575 4.2764C3.28575 3.77037 3.58849 3.3204 4.01213 3.14588L5.85146 2.59841C6.01624 2.53113 6.19564 2.54917 6.34335 2.64911C6.49106 2.74807 6.57589 2.907 6.57589 3.08543V10.1821H3.28575V4.2764ZM2.50916 11.1566H7.35248V19.8644H2.50916V11.1566ZM1.81301 20.8394H8.04862V31.2818H1.81301V20.8394ZM38.025 38.0255H0.975V32.2568H38.025V38.0255Z" fill="#7A7979"/>
</svg>
