<svg width="42" height="42" viewBox="0 0 42 42" fill="none" xmlns="http://www.w3.org/2000/svg">
<path d="M37.4743 9.27501C37.4743 6.61342 35.3084 4.44751 32.6468 4.44751C29.9852 4.44751 27.8193 6.61342 27.8193 9.27501C27.8193 11.9371 29.9852 14.103 32.6468 14.103C35.3084 14.103 37.4743 11.9366 37.4743 9.27501ZM32.6468 13.0557C30.5621 13.0557 28.8662 11.3598 28.8662 9.27448C28.8662 7.19023 30.5621 5.49383 32.6468 5.49383C34.7316 5.49383 36.4275 7.1897 36.4275 9.27448C36.4275 11.3598 34.7316 13.0557 32.6468 13.0557Z" fill="#7A7979"/>
<path d="M33.1704 2.36062V0.523419C33.1704 0.233968 32.9359 0 32.647 0C32.358 0 32.1235 0.233968 32.1235 0.523419V2.36062C32.1235 2.65007 32.358 2.88404 32.647 2.88404C32.9359 2.88404 33.1704 2.64955 33.1704 2.36062Z" fill="#7A7979"/>
<path d="M29.835 3.4818C29.9061 3.4818 29.9784 3.46767 30.0475 3.43626C30.3113 3.31849 30.4301 3.00967 30.3128 2.74587L29.5659 1.06779C29.4482 0.802937 29.1399 0.683597 28.875 0.802413C28.6112 0.920183 28.4924 1.229 28.6096 1.4928L29.3566 3.17089C29.4429 3.36612 29.6345 3.4818 29.835 3.4818Z" fill="#7A7979"/>
<path d="M27.5081 5.17192C27.651 5.17192 27.7939 5.11382 27.8975 4.99867C28.0912 4.78406 28.0734 4.45326 27.8588 4.2596L26.4937 3.03009C26.2791 2.83694 25.9483 2.85422 25.7541 3.06882C25.5604 3.28342 25.5782 3.61422 25.7928 3.80789L27.1579 5.0374C27.2584 5.12743 27.3835 5.17192 27.5081 5.17192Z" fill="#7A7979"/>
<path d="M23.8264 6.40928C23.7374 6.68408 23.8876 6.97929 24.1624 7.06879L25.9096 7.63618C25.9635 7.65345 26.018 7.66183 26.0713 7.66183C26.2922 7.66183 26.4974 7.52103 26.5691 7.30014C26.6581 7.02535 26.5079 6.73014 26.2331 6.64064L24.4859 6.07325C24.209 5.98322 23.9154 6.13449 23.8264 6.40928Z" fill="#7A7979"/>
<path d="M23.4229 10.2444C23.4511 10.5134 23.6783 10.7133 23.9431 10.7133C23.9615 10.7133 23.9798 10.7123 23.9981 10.7102L25.8248 10.5181C26.1122 10.4877 26.321 10.2302 26.2907 9.94286C26.2603 9.65551 26.0023 9.44509 25.7154 9.47702L23.8887 9.66912C23.6008 9.69947 23.3925 9.957 23.4229 10.2444Z" fill="#7A7979"/>
<path d="M25.068 14.1742C25.1565 14.1742 25.247 14.1517 25.3292 14.1041L26.9199 13.1855C27.1706 13.041 27.2559 12.7207 27.1114 12.4705C26.967 12.2197 26.6461 12.1339 26.3965 12.2789L24.8058 13.1975C24.5551 13.342 24.4697 13.6623 24.6142 13.9125C24.711 14.0805 24.8869 14.1742 25.068 14.1742Z" fill="#7A7979"/>
<path d="M27.5021 16.8782C27.6643 16.8782 27.8235 16.8033 27.9261 16.6625L29.0059 15.1765C29.176 14.9426 29.1242 14.6154 28.8902 14.4458C28.6557 14.2763 28.3296 14.3276 28.159 14.5615L27.0792 16.0475C26.909 16.2815 26.9609 16.6086 27.1948 16.7782C27.288 16.8452 27.3958 16.8782 27.5021 16.8782Z" fill="#7A7979"/>
<path d="M30.6969 15.9292L30.3153 17.7261C30.2551 18.0088 30.4357 18.2867 30.7183 18.3474C30.755 18.3553 30.7916 18.3584 30.8277 18.3584C31.0695 18.3584 31.2868 18.1899 31.3391 17.9439L31.7207 16.147C31.7809 15.8643 31.6003 15.5864 31.3176 15.5257C31.035 15.4681 30.7571 15.6471 30.6969 15.9292Z" fill="#7A7979"/>
<path d="M33.9761 15.5262C33.6935 15.5864 33.5129 15.8643 33.5731 16.1475L33.9547 17.9444C34.007 18.1904 34.2242 18.3589 34.4661 18.3589C34.5022 18.3589 34.5388 18.3553 34.5754 18.3479C34.8581 18.2878 35.0387 18.0098 34.9785 17.7267L34.5969 15.9298C34.5367 15.6466 34.2593 15.4665 33.9761 15.5262Z" fill="#7A7979"/>
<path d="M37.3675 16.6625C37.4701 16.8039 37.6292 16.8782 37.7914 16.8782C37.8982 16.8782 38.0055 16.8457 38.0987 16.7782C38.3327 16.6086 38.3845 16.2815 38.2144 16.0475L37.1345 14.5615C36.965 14.3281 36.6378 14.2757 36.4033 14.4458C36.1694 14.6154 36.1175 14.9426 36.2877 15.1765L37.3675 16.6625Z" fill="#7A7979"/>
<path d="M39.9642 14.1041C40.0464 14.1517 40.1369 14.1742 40.2254 14.1742C40.4065 14.1742 40.5824 14.0805 40.6792 13.9125C40.8237 13.6618 40.7378 13.342 40.4876 13.1975L38.897 12.2789C38.6462 12.1344 38.3264 12.2197 38.182 12.4705C38.0375 12.7212 38.1233 13.041 38.3735 13.1855L39.9642 14.1041Z" fill="#7A7979"/>
<path d="M41.3505 10.7133C41.6148 10.7133 41.842 10.5134 41.8707 10.2444C41.9011 9.957 41.6923 9.69947 41.4049 9.66912L39.5782 9.47702C39.2845 9.44509 39.0333 9.65551 39.0029 9.94286C38.9726 10.2302 39.1814 10.4877 39.4688 10.5181L41.2955 10.7102C41.3138 10.7123 41.3321 10.7133 41.3505 10.7133Z" fill="#7A7979"/>
<path d="M38.7248 7.2996C38.7965 7.52101 39.0017 7.66129 39.2226 7.66129C39.2759 7.66129 39.3304 7.65291 39.3843 7.63564L41.1315 7.06825C41.4063 6.97875 41.5565 6.68406 41.4675 6.40874C41.3785 6.13447 41.0854 5.9832 40.808 6.07219L39.0608 6.63957C38.7866 6.7296 38.6358 7.02481 38.7248 7.2996Z" fill="#7A7979"/>
<path d="M38.7998 3.03008L37.4347 4.25959C37.2201 4.45325 37.2028 4.78406 37.396 4.99866C37.4996 5.11381 37.642 5.17191 37.7854 5.17191C37.91 5.17191 38.0356 5.12742 38.1356 5.03739L39.5006 3.80788C39.7153 3.61421 39.7325 3.28341 39.5394 3.06881C39.3457 2.85369 39.0154 2.83694 38.7998 3.03008Z" fill="#7A7979"/>
<path d="M35.4589 3.4818C35.6594 3.4818 35.8504 3.36612 35.9373 3.17089L36.6842 1.49281C36.802 1.229 36.6832 0.919662 36.4189 0.802416C36.154 0.683077 35.8452 0.80294 35.728 1.06779L34.981 2.74587C34.8633 3.00968 34.9821 3.31902 35.2464 3.43626C35.3155 3.46767 35.3877 3.4818 35.4589 3.4818Z" fill="#7A7979"/>
<path d="M41.5045 39.4611C40.5257 39.2921 39.5616 39.1424 38.6043 39.0005V36.4258H39.3957C39.6846 36.4258 39.9191 36.1918 39.9191 35.9024V33.1654C39.9191 32.876 39.6846 32.642 39.3957 32.642H37.6438V24.1029C37.6438 23.8135 37.4093 23.5795 37.1204 23.5795C36.8315 23.5795 36.597 23.8135 36.597 24.1029V24.5793H16.5715V24.1029C16.5715 23.8135 16.337 23.5795 16.048 23.5795C15.7591 23.5795 15.5246 23.8135 15.5246 24.1029V32.6425H14.193C13.9041 32.6425 13.6696 32.8765 13.6696 33.166V35.9029C13.6696 36.1924 13.9041 36.4263 14.193 36.4263H14.8646V37.794C13.0698 37.8773 11.4132 37.994 9.91409 38.129V20.1517C14.8468 19.879 18.7787 15.8225 18.7787 10.861C18.7777 5.72308 14.5657 1.54357 9.3891 1.54357C4.21248 1.54357 0 5.72308 0 10.861C0 15.8235 3.93297 19.8805 8.8662 20.1522V38.2285C3.62311 38.7514 0.541739 39.4507 0.469507 39.4674C0.187908 39.5334 0.0130855 39.8144 0.0790363 40.096C0.135566 40.3373 0.350691 40.5001 0.588323 40.5001C0.62758 40.5001 0.667883 40.4954 0.707663 40.4865C0.778848 40.4703 3.76757 39.7924 8.8662 39.2785V41.3234C8.8662 41.6129 9.10069 41.8469 9.38962 41.8469C9.67855 41.8469 9.91304 41.6129 9.91304 41.3234V39.178C11.4084 39.0424 13.0672 38.9246 14.8635 38.8409V41.3234C14.8635 41.6129 15.098 41.8469 15.387 41.8469C15.6759 41.8469 15.9104 41.6129 15.9104 41.3234V38.7974C21.8747 38.5718 29.279 38.744 37.5569 39.9066V41.3234C37.5569 41.6129 37.7914 41.8469 38.0803 41.8469C38.3693 41.8469 38.6037 41.6129 38.6037 41.3234V40.0583C39.5025 40.1923 40.408 40.3342 41.3255 40.4928C41.6113 40.5404 41.8814 40.3509 41.9306 40.0662C41.9809 39.7815 41.7893 39.5103 41.5045 39.4611ZM1.04684 10.861C1.04684 6.30041 4.78876 2.59041 9.3891 2.59041C13.9894 2.59041 17.7314 6.30041 17.7314 10.861C17.7314 15.2462 14.2689 18.8347 9.91356 19.1048V17.5733L13.1839 14.303C13.3885 14.0983 13.3885 13.7675 13.1839 13.5629C12.9792 13.3582 12.6484 13.3582 12.4438 13.5629L9.91356 16.0931V12.0565C9.91356 11.767 9.67907 11.533 9.39014 11.533C9.10122 11.533 8.86672 11.767 8.86672 12.0565V16.0931L6.33652 13.5629C6.13186 13.3582 5.80106 13.3582 5.5964 13.5629C5.39174 13.7675 5.39174 14.0983 5.5964 14.303L8.86725 17.5733V19.1048C4.5103 18.8358 1.04684 15.2467 1.04684 10.861ZM16.5715 28.2217H36.597V30.0453H16.5715V28.2217ZM36.597 25.6261V27.1749H16.5715V25.6261H36.597ZM16.5715 31.0922H36.597V32.6425H16.5715V31.0922ZM14.7159 33.6894H38.8723V35.3795H14.7159V33.6894ZM15.9109 37.7511V36.4263H37.5574V38.8492C29.2905 37.6982 21.8904 37.5266 15.9109 37.7511Z" fill="#7A7979"/>
<path d="M20.8954 17.9868C20.8142 17.9789 18.8959 17.8899 17.9417 19.054C16.987 20.2181 17.4528 22.081 17.4732 22.16C17.5303 22.3809 17.7234 22.5395 17.9511 22.5515C17.9632 22.5526 18.0181 22.5552 18.1055 22.5552C18.5934 22.5552 20.0956 22.4714 20.9048 21.4843C21.8595 20.3202 21.3937 18.4573 21.3732 18.3783C21.3162 18.1574 21.123 17.9988 20.8954 17.9868ZM20.0956 20.8206C19.7077 21.2932 18.9414 21.4555 18.4164 21.4968C18.3547 20.9739 18.3636 20.1909 18.7514 19.7177C19.1393 19.2451 19.9056 19.0828 20.43 19.0415C20.4923 19.5644 20.4834 20.3474 20.0956 20.8206Z" fill="#7A7979"/>
<path d="M6.07294 27.3214C6.69267 27.3214 7.17631 27.2005 7.21557 27.1906C7.43645 27.1335 7.59505 26.9399 7.60761 26.7127C7.6118 26.6316 7.70444 24.7132 6.54036 23.7585C5.37627 22.8043 3.51395 23.2702 3.43491 23.2895C3.21403 23.3466 3.05543 23.5403 3.04287 23.7674C3.03868 23.8486 2.94603 25.7669 4.11012 26.7216C4.69321 27.2 5.45112 27.3214 6.07294 27.3214ZM5.87614 24.5683C6.34878 24.9556 6.51052 25.7203 6.55239 26.2448C6.07242 26.3029 5.27211 26.3207 4.77382 25.9119C4.30169 25.5245 4.13943 24.7598 4.09756 24.2354C4.57649 24.1762 5.37784 24.1595 5.87614 24.5683Z" fill="#7A7979"/>
</svg>
