<svg width="17" height="24" viewBox="0 0 17 24" fill="none" xmlns="http://www.w3.org/2000/svg">
<path d="M16.1865 10.0827C14.8108 9.05117 13.1864 8.92861 12.0514 8.86555C13.024 7.9268 13.6276 6.62604 13.6288 5.18726C13.6288 4.93889 13.6047 4.69617 13.5702 4.45702C14.4224 4.22531 15.0506 3.44836 15.0506 2.52299C15.0518 1.41379 14.1529 0.514592 13.044 0.513997C12.4797 0.5137 11.9705 0.7472 11.6052 1.12169C10.698 0.422085 9.55396 0.000595525 8.30764 6.21466e-07C7.05001 -0.000594282 5.8959 0.425952 4.98421 1.13537C4.61864 0.750174 4.10316 0.508643 3.52997 0.508643C2.42136 0.508049 1.52187 1.40635 1.52157 2.51525C1.52068 3.4549 2.16674 4.24196 3.03858 4.46118C3.00467 4.69706 2.98117 4.93622 2.98087 5.18102C2.97998 6.5603 3.53651 7.81109 4.43838 8.74033C3.41188 8.71534 2.17478 8.81469 1.01798 9.47533C-0.792308 10.5069 -0.123635 13.363 2.51119 13.0968C2.86933 13.0605 3.20128 13.0001 3.52253 12.9279C3.39284 13.1944 3.27237 13.4871 3.17094 13.8178C3.04244 14.239 2.99098 14.806 3.08528 15.4074C2.50435 17.196 2.40827 19.647 2.81638 21.3871C3.4214 23.9654 6.33999 23.6694 6.72668 21.6215C6.89385 20.7416 6.79004 19.6869 6.58777 18.6871C7.07083 18.7832 7.61339 18.8382 8.22346 18.8403C8.81569 18.8427 9.34396 18.7939 9.81631 18.7068C9.62714 19.7118 9.5382 20.7714 9.71905 21.6509C10.1358 23.6926 13.0576 23.9461 13.6252 21.3597C13.9916 19.6872 13.8864 17.37 13.3438 15.6133C13.4797 14.9517 13.4348 14.3176 13.2971 13.8565C13.2156 13.582 13.1204 13.3339 13.0181 13.1045C13.4006 13.258 13.8078 13.3871 14.2543 13.49C16.8347 14.0817 17.8538 11.3317 16.1865 10.0827ZM13.0434 1.4709C13.6231 1.4712 14.0928 1.94177 14.0925 2.5218C14.0925 2.99653 13.776 3.39274 13.3435 3.52272C13.1168 2.8713 12.7614 2.27908 12.306 1.77281C12.4961 1.58661 12.756 1.4706 13.0434 1.4709ZM10.6899 4.00936C11.0177 4.00965 11.2833 4.28212 11.2831 4.61913C11.2831 4.95555 11.0168 5.22772 10.6893 5.22772C10.3615 5.22742 10.0956 4.95466 10.0962 4.61824C10.0965 4.28152 10.3624 4.00906 10.6899 4.00936ZM8.3234 4.78541C8.64138 4.78511 8.94835 4.83865 9.23063 4.93503C9.59442 5.05728 9.91685 5.2527 10.1858 5.49602C10.5513 5.8369 10.8116 6.27386 10.91 6.76525C10.9407 6.90802 10.9556 7.05794 10.9559 7.21142C10.955 7.57194 10.8696 7.91311 10.7194 8.22009C10.5855 8.48452 10.4035 8.72248 10.1846 8.92505C9.91447 9.17282 9.59263 9.36409 9.22825 9.48634C8.94597 9.58271 8.6387 9.63417 8.32013 9.63358C8.04082 9.63387 7.77252 9.59461 7.51909 9.52084C7.11277 9.40037 6.75226 9.19424 6.45838 8.92326C6.23767 8.7201 6.05474 8.48244 5.92356 8.21771C5.77067 7.91044 5.68709 7.56896 5.68679 7.20815C5.68709 7.05526 5.70255 6.90505 5.73022 6.76227C5.82986 6.27118 6.09014 5.83393 6.46017 5.49364C6.75464 5.22415 7.11486 5.01831 7.52147 4.90141C7.7755 4.82437 8.0435 4.78541 8.3234 4.78541ZM5.88341 4.00638C6.21149 4.00638 6.47712 4.27944 6.47653 4.61616C6.47653 4.95287 6.2106 5.22504 5.88281 5.22474C5.55472 5.22474 5.2891 4.95168 5.28939 4.61497C5.28939 4.27885 5.55532 4.00608 5.88341 4.00638ZM3.26226 3.52867C2.81132 3.41029 2.47728 3.00367 2.47758 2.51555C2.47788 1.93522 2.94845 1.46525 3.52878 1.46555C3.82682 1.46555 4.09423 1.59077 4.2852 1.79007C3.83634 2.29425 3.48624 2.88231 3.26226 3.52867ZM8.14434 17.6443C6.55267 17.6434 5.26352 16.1421 5.26471 14.2911C5.2659 12.44 6.55684 10.9397 8.1485 10.9406C9.74017 10.9418 11.0296 12.4433 11.0284 14.2941C11.0272 16.1451 9.736 17.6451 8.14434 17.6443Z" fill="#7E8888"/>
<path d="M7.76639 7.56748C7.77412 7.56748 7.91333 7.56748 8.06384 7.48925C8.11679 7.46218 8.17033 7.425 8.2206 7.37533C8.25957 7.33666 8.29258 7.29264 8.32114 7.24475C8.35029 7.29472 8.3836 7.34142 8.42406 7.38128C8.61175 7.56778 8.8506 7.56778 8.85982 7.56778C9.00498 7.56808 9.12247 7.53655 9.21766 7.48717C9.44134 7.37176 9.53772 7.15819 9.55854 7.02671C9.56865 6.96395 9.52612 6.90565 9.46335 6.89524C9.40059 6.88513 9.3414 6.92766 9.33039 6.99013C9.32415 7.02552 9.25841 7.33725 8.85923 7.33696C8.85744 7.33725 8.70515 7.33517 8.58736 7.21768C8.4886 7.11922 8.43863 6.96663 8.43863 6.76317C8.43863 6.72896 8.43833 6.7019 8.43833 6.67245C8.47909 6.6543 8.52519 6.62724 8.57843 6.58559C8.57843 6.58559 9.08113 6.17779 9.20398 5.85267C9.21617 5.81995 9.22777 5.79437 9.23194 5.7682L9.2361 5.76552C9.2361 5.76552 9.26704 5.58377 9.11236 5.55224C8.96066 5.52131 8.35743 5.31428 7.56888 5.54451C7.56888 5.54451 7.52992 5.557 7.50939 5.5695C7.47846 5.58556 7.4029 5.63107 7.40737 5.73161C7.40766 5.73518 7.40737 5.73845 7.40796 5.74232C7.40796 5.74321 7.40796 5.7441 7.40796 5.7447C7.41064 5.77563 7.41897 5.81043 7.4389 5.84999C7.50909 5.99485 7.72207 6.26821 7.93951 6.46988C8.02815 6.55674 8.11976 6.62724 8.20751 6.66888C8.20751 6.69714 8.20781 6.72777 8.20781 6.76228C8.20722 7.31673 7.81339 7.33517 7.76788 7.33547C7.36929 7.33517 7.30415 7.02404 7.2979 6.98834C7.28779 6.92588 7.2289 6.88304 7.16613 6.89286C7.10278 6.90297 7.05994 6.96217 7.06976 7.02493C7.09861 7.21262 7.28244 7.56689 7.76639 7.56748Z" fill="#7E8888"/>
</svg>
