<svg width="50" height="59" viewBox="0 0 50 59" fill="none" xmlns="http://www.w3.org/2000/svg">
<path fill-rule="evenodd" clip-rule="evenodd" d="M25 59C35.0104 49.0896 50 39.3187 50 24.7502C50 11.084 38.8041 0 25 0C11.1959 0 0 11.084 0 24.7502C0 39.3187 14.9896 49.0896 25 59Z" fill="#ABB2B2"/>
<path d="M18.4648 33.683C18.7471 33.683 19.0119 33.6025 19.2437 33.4755V35.09H19.7645V33.3659C20.0329 33.5626 20.3613 33.6838 20.7213 33.6838C21.4968 33.6838 22.1426 33.1385 22.3015 32.411C22.5953 32.3637 22.862 32.2389 23.0823 32.0591V31.3582C22.7129 31.4664 22.3374 31.5204 21.9553 31.5204C20.8286 31.5204 19.7819 31.0743 18.9856 30.26C17.4358 29.6314 16.4015 28.1217 16.3849 26.4514C16.1127 26.6993 15.9223 27.0396 15.8742 27.4344C15.8257 27.8199 15.924 28.1862 16.1157 28.4911C15.7809 28.7883 15.5679 29.2172 15.5679 29.6972C15.5679 30.2719 15.8667 30.773 16.3155 31.0608C16.2488 31.2406 16.2056 31.4321 16.2056 31.6346C16.2056 32.3352 16.6511 32.9243 17.2715 33.1515C17.5692 33.4763 17.9909 33.683 18.4648 33.683Z" fill="white"/>
<path d="M33.3006 29.2523C33.3006 28.6463 32.9644 28.1217 32.4699 27.8442C32.0173 28.205 31.4871 28.4737 30.9 28.6233C30.3535 30.3222 28.744 31.5189 26.9344 31.5189C26.6146 31.5189 26.298 31.4774 25.9915 31.4024C25.9782 31.4791 25.9707 31.5549 25.9707 31.6346C25.9707 32.3343 26.4156 32.9243 27.0371 33.1506C27.3342 33.4754 27.7568 33.6818 28.2302 33.6818C28.5124 33.6818 28.7778 33.6013 29.0085 33.4746V35.0891H29.5312V33.3639C29.7982 33.5618 30.1258 33.6829 30.4855 33.6829C31.2638 33.6829 31.908 33.1373 32.0668 32.4102C32.8396 32.2862 33.4331 31.6221 33.4331 30.8145C33.4331 30.4802 33.3299 30.1706 33.1578 29.9122C33.2466 29.7105 33.3006 29.4888 33.3006 29.2523Z" fill="white"/>
<path d="M24.823 29.9056C25.4156 30.343 26.1411 30.6092 26.9344 30.6092C28.6466 30.6092 30.0707 29.4075 30.421 27.8016C32.1263 27.5318 33.4331 26.0667 33.4331 24.2851C33.4331 23.5483 33.2087 22.8646 32.8263 22.2943C33.0252 21.8502 33.1417 21.3591 33.1417 20.8408C33.1417 19.3069 32.1683 18.0097 30.8114 17.5037C31.0936 16.9912 31.2716 16.4093 31.2716 15.784C31.2716 13.8112 29.6723 12.2114 27.6981 12.2114C26.9917 12.2114 26.3384 12.4228 25.7845 12.7747C25.163 11.7183 24.028 11 22.7132 11C21.022 11 19.617 12.1759 19.2437 13.7517C17.7059 13.991 16.4442 15.2071 16.2424 16.8271C16.1379 17.6785 16.3531 18.4862 16.777 19.1602C16.0407 19.8146 15.5679 20.7581 15.5679 21.8206C15.5679 23.087 16.2283 24.1902 17.2203 24.8266C17.0698 25.2234 16.9779 25.6467 16.9779 26.0955C16.9779 27.637 17.9579 28.9388 19.3254 29.4399C19.9806 30.1538 20.9105 30.61 21.9556 30.61C22.582 30.61 23.1639 30.4357 23.6747 30.1518V35.3683H16.8343V36H31.667V35.3683H24.8219V29.9056H24.823Z" fill="white"/>
</svg>
