<svg width="50" height="59" viewBox="0 0 50 59" fill="none" xmlns="http://www.w3.org/2000/svg">
<path fill-rule="evenodd" clip-rule="evenodd" d="M25 59C35.0104 49.0896 50 39.3187 50 24.7502C50 11.084 38.8041 0 25 0C11.1959 0 0 11.084 0 24.7502C0 39.3187 14.9896 49.0896 25 59Z" fill="#ABB2B2"/>
<path d="M33 11C31.45 11 30 15.8313 30 21C30 24.5625 32 26 32 26V34C32 34.55 32.45 35 33 35C33.55 35 34 34.55 34 34V11.6875C34 11 33.3125 11 33 11Z" fill="white"/>
<path d="M27 11L27.625 17.5C27.625 17.775 27.4 18 27.125 18C26.85 18 26.625 17.775 26.625 17.5L26.25 11H25.75L25.375 17.5C25.375 17.775 25.15 18 24.875 18C24.6 18 24.375 17.775 24.375 17.5L25 11H24.5C24.5 11 23 17.7 23 19C23 20.3 23.8375 21.4125 25 21.825V34C25 34.55 25.45 35 26 35C26.55 35 27 34.55 27 34V21.825C28.1625 21.4125 29 20.3125 29 19C29 17.6875 27.5 11 27.5 11H27Z" fill="white"/>
<path d="M19 11C17.3438 11 16 15 16 19C16 20.3 16.8375 21.4125 18 21.825V34C18 34.55 18.45 35 19 35C19.55 35 20 34.55 20 34V21.825C21.1625 21.4125 22 20.3125 22 19C22 15 20.6562 11 19 11Z" fill="white"/>
</svg>
