<svg width="50" height="59" viewBox="0 0 50 59" fill="none" xmlns="http://www.w3.org/2000/svg">
<path fill-rule="evenodd" clip-rule="evenodd" d="M25 59C35.0104 49.0896 50 39.3187 50 24.7502C50 11.084 38.8041 0 25 0C11.1959 0 0 11.084 0 24.7502C0 39.3187 14.9896 49.0896 25 59Z" fill="#ABB2B2"/>
<path fill-rule="evenodd" clip-rule="evenodd" d="M31.7587 17.945L30.1849 16.4L25.0937 21.4388C24.5249 20.7688 23.9462 20.1 23.3887 19.4625L28.2399 14.6025C28.8662 13.9763 29.9212 14.0113 30.5949 14.6825L33.1012 17.17C33.7737 17.8413 33.7387 18.7463 33.1112 19.3738L27.7849 24.7175C27.3887 24.2063 26.9437 23.6538 26.4712 23.0788L31.7587 17.945ZM34.79 30.3025L34.7761 30.3074C34.1255 30.5328 32.857 30.9723 31.4 28.5075C29.9325 26.0275 27.9925 26.6038 27.9925 26.6038C27.9033 26.6192 27.825 26.6464 27.7465 26.6736C27.7294 26.6795 27.7123 26.6855 27.695 26.6913C25.505 23.5725 19.3463 16.78 18.8038 16.2363C18.025 15.4588 16.7175 14.7288 15.6238 15.875C14.595 16.9525 15.1225 18.3588 15.9013 19.1375C16.4488 19.685 23.2788 25.875 26.3963 28.0575C26.3449 28.1928 26.3129 28.3346 26.3013 28.4788C26.3013 33.0363 30.9625 32.795 31.9263 32.6188C33.645 32.3075 35.4363 30.0813 34.79 30.3025ZM22.0166 27.4125L21.7329 28.3525L22.3404 28.96L17.5766 31.03L16.6391 30.1313L18.7904 25.5975L18.7679 26.48L20.0154 26.4625L21.0816 25.4063C20.4191 24.8438 19.7591 24.2738 19.1291 23.7225L18.0866 24.7663C18.0866 24.7663 15.1966 31.4163 15.0004 31.9538C14.8441 32.3788 15.3829 32.9175 15.7554 32.735C16.3554 32.4388 22.9304 29.585 22.9304 29.585L24.3904 28.12C23.8165 27.6726 23.2494 27.2168 22.6891 26.7525L22.0166 27.4125Z" fill="white"/>
</svg>
