<svg width="50" height="59" viewBox="0 0 50 59" fill="none" xmlns="http://www.w3.org/2000/svg">
<path fill-rule="evenodd" clip-rule="evenodd" d="M25 59C35.0104 49.0896 50 39.3187 50 24.7502C50 11.084 38.8041 0 25 0C11.1959 0 0 11.084 0 24.7502C0 39.3187 14.9896 49.0896 25 59Z" fill="#ABB2B2"/>
<path fill-rule="evenodd" clip-rule="evenodd" d="M32.1472 18.8094C32.2195 18.7873 32.3145 18.8316 32.4096 18.9535C32.4096 18.9535 32.4096 18.9535 36.7073 23.04C36.9583 23.2838 36.9583 23.6533 36.7073 23.8343C36.7073 23.8343 36.7073 23.8343 32.4096 27.9836C32.3145 28.1055 32.2195 28.1351 32.1472 28.0981C32.0749 28.0612 32.0293 27.954 32.0293 27.7988V19.0755C32.0293 18.924 32.0749 18.8316 32.1472 18.8094Z" fill="white"/>
<path fill-rule="evenodd" clip-rule="evenodd" d="M24.7953 12H25.0996L25.3925 12.1182C25.3925 12.1182 25.3925 12.1182 29.8157 16.3894C30.0058 16.6333 29.9412 16.818 29.6255 16.818C29.6255 16.818 29.6255 16.818 27.7923 16.818C27.4766 16.818 27.2256 17.0618 27.2256 17.3685C27.2256 17.3685 27.2256 17.3685 27.2256 20.5386C27.2256 20.8453 26.9708 21.0892 26.5905 21.0892C26.5905 21.0892 26.5905 21.0892 23.3691 21.0892C23.0534 21.0892 22.7986 20.8453 22.7986 20.5386C22.7986 20.5386 22.7986 20.5386 22.7986 17.3685C22.7986 17.0618 22.5476 16.818 22.2281 16.818H20.2695C19.9538 16.818 19.8891 16.6333 20.0793 16.3894C20.0793 16.3894 20.0793 16.3894 24.5063 12.1182L24.7953 12Z" fill="white"/>
<path fill-rule="evenodd" clip-rule="evenodd" d="M17.8663 18.7171C17.9461 18.754 17.9956 18.8612 17.9956 19.0164V27.9208C17.9956 28.076 17.9461 28.1683 17.8663 28.1979C17.7902 28.2275 17.6799 28.1979 17.5506 28.1055C17.5506 28.1055 17.5506 28.1055 13.1883 23.8344C12.9372 23.6533 12.9372 23.2838 13.1883 23.04C13.1883 23.04 13.1883 23.04 17.5506 18.8316C17.6799 18.7097 17.7902 18.6801 17.8663 18.7171Z" fill="white"/>
<path fill-rule="evenodd" clip-rule="evenodd" d="M23.3691 25.7261C23.3691 25.7261 23.3691 25.7261 26.5904 25.7261C26.9708 25.7261 27.2256 25.9699 27.2256 26.2766C27.2256 26.2766 27.2256 26.2766 27.2256 29.6315C27.2256 29.9972 27.4766 30.2411 27.7923 30.2411H29.4999C29.8156 30.2411 29.9411 30.4221 29.6901 30.6069C29.6901 30.6069 29.6901 30.6069 25.3924 34.8152C25.2631 34.9372 25.1072 35 24.9474 35C24.7915 35 24.6317 34.9372 24.5062 34.8152C24.5062 34.8152 24.5062 34.8152 20.2085 30.6069C19.9537 30.4221 20.0792 30.2411 20.3949 30.2411C20.3949 30.2411 20.3949 30.2411 22.2281 30.2411C22.5476 30.2411 22.7986 29.9972 22.7986 29.6315C22.7986 29.6315 22.7986 29.6315 22.7986 26.2766C22.7986 25.9699 23.0534 25.7261 23.3691 25.7261Z" fill="white"/>
</svg>
