<svg width="26" height="24" viewBox="0 0 26 24" fill="transparent" xmlns="http://www.w3.org/2000/svg">
<path d="M14.5828 3.78874C14.6967 3.78874 14.8106 3.74545 14.8975 3.65857L16.9109 1.64508C17.0847 1.47161 17.0847 1.1896 16.9109 1.01613C16.7372 0.842361 16.4558 0.842361 16.282 1.01613L14.2685 3.02961C14.0947 3.20309 14.0947 3.48509 14.2685 3.65857C14.3551 3.74545 14.469 3.78874 14.5828 3.78874Z" />
<path d="M16.5282 5.91817C16.6151 6.00505 16.729 6.04835 16.8429 6.04835C16.9567 6.04835 17.0706 6.00505 17.1575 5.91817L19.429 3.6467C19.6027 3.47323 19.6027 3.19152 19.429 3.01775C19.2552 2.84398 18.9738 2.84398 18.8 3.01775L16.5285 5.28922C16.3545 5.46269 16.3545 5.7444 16.5282 5.91817Z" />
<path d="M20.2083 2.68267C20.3222 2.68267 20.4361 2.63938 20.523 2.55249L21.5045 1.57096C21.6783 1.39748 21.6783 1.11548 21.5045 0.942004C21.3307 0.768233 21.0493 0.768233 20.8755 0.942004L19.894 1.92354C19.7202 2.09701 19.7202 2.37902 19.894 2.55249C19.9809 2.63908 20.0948 2.68267 20.2083 2.68267Z" />
<path d="M25.8691 1.09621C25.6954 0.922439 25.414 0.922439 25.2402 1.09621L18.7876 7.54884C18.6138 7.72231 18.6138 8.00432 18.7876 8.17779C18.8744 8.26468 18.9883 8.30797 19.1022 8.30797C19.216 8.30797 19.3299 8.26468 19.4168 8.17779L25.8694 1.72516C26.0429 1.55139 26.0429 1.26968 25.8691 1.09621Z" />
<path d="M18.5136 13.0656C18.4149 11.9903 18.134 10.9551 17.6789 9.98902C17.6786 9.98842 17.6786 9.98813 17.6783 9.98754C17.2281 9.02676 16.6152 8.15435 15.8584 7.39788C15.7048 7.24072 15.5563 7.10283 15.4151 6.98481C14.9831 6.60168 14.5095 6.25592 14.0069 5.95701C14.0063 5.95672 14.006 5.95642 14.0057 5.95612C13.7219 5.78858 13.4476 5.64476 13.1677 5.51695C12.3549 5.14302 11.4916 4.89126 10.6011 4.7685C10.3965 4.74062 10.1919 4.71898 9.98345 4.70326C9.80968 4.6908 9.62553 4.72906 9.47133 4.72728C8.8836 4.71482 8.29201 4.60718 7.71465 4.90372C7.71317 4.90372 7.71198 4.90372 7.7105 4.90372C6.53622 4.90372 5.42984 5.41554 4.42488 6.0439C3.93915 6.34281 3.47359 6.68293 3.04154 6.97947H3.04124C3.04094 6.97947 3.04065 7.04886 3.04035 7.04916C3.03946 7.05005 3.03828 7.08533 3.03709 7.08652C3.03679 7.08682 3.03679 7.10431 3.0365 7.10431C2.94309 7.18823 2.84997 7.28372 2.76012 7.37386C2.71831 7.41568 2.67413 7.4652 2.63469 7.51324C1.93724 8.23501 1.32311 9.05522 0.901435 9.94572C0.486877 10.8089 0.331789 11.7297 0.0352523 12.678C0.0352523 12.678 0.0352523 12.6783 0.0352523 12.6786C0.0352523 13.199 -0.0148623 13.7349 0.00441256 14.282L0.0456311 14.5981C0.10909 15.52 0.318148 16.4108 0.642855 17.247C0.643152 17.2476 0.648786 17.2482 0.649082 17.2491C0.649675 17.2509 0.65353 17.2527 0.654124 17.2545C0.654717 17.2559 0.656496 17.2577 0.657089 17.2592C0.657385 17.2595 0.658275 17.2601 0.658572 17.2604C0.731816 17.4608 0.819294 17.6669 0.925751 17.8899C1.29435 18.668 1.77058 19.3904 2.35001 20.0478C2.36988 20.0712 2.39005 20.0938 2.41169 20.1154C2.51281 20.2358 2.62609 20.3589 2.74797 20.4808C3.3271 21.0599 3.97978 21.5599 4.6974 21.9718C4.73031 21.9907 4.76323 22.0088 4.79614 22.026C4.79733 22.0266 4.79851 22.0278 4.7997 22.0284C5.95856 22.6763 7.27904 23.0686 8.61553 23.1629C8.83289 23.1795 9.05351 23.1878 9.27443 23.1878C9.38504 23.1878 9.49594 23.1855 9.60626 23.1816C9.60744 23.1816 9.60863 23.1813 9.60981 23.181C10.6444 23.149 11.6547 22.9471 12.6128 22.5802C12.7599 22.5242 12.9064 22.4643 13.0535 22.3991C13.0677 22.3925 13.0817 22.3854 13.095 22.3777C13.9923 21.9774 14.8176 21.4341 15.5482 20.7625C15.5601 20.7527 15.572 20.7408 15.5835 20.7299C15.6648 20.662 15.7451 20.5849 15.8136 20.5134L15.7884 20.4873C16.9334 19.3453 17.8268 17.9234 18.1234 16.3752C18.1234 16.3749 18.1234 16.3749 18.1234 16.3746C18.1234 16.3743 18.1234 16.4683 18.1234 16.4683H18.175H18.2008C18.2868 16.1718 18.3677 15.7905 18.4161 15.4856C18.4169 15.4803 18.4241 15.4515 18.4247 15.4462C18.5424 14.7419 18.5783 14.0038 18.5258 13.2868C18.5231 13.2183 18.5198 13.1347 18.5136 13.0656ZM15.2265 8.02358C15.8566 8.65371 16.3691 9.37282 16.764 10.1566L15.0252 12.9523L12.5541 13.1931L10.2219 10.6835L10.5347 8.45444L13.9704 7.05627C13.9876 7.04945 14.0006 7.037 14.0166 7.0284C14.2992 7.22293 14.575 7.42872 14.8345 7.65884C14.9632 7.76648 15.0904 7.8845 15.2265 8.02358ZM4.63957 17.5163L1.41385 16.7231C1.16565 16.0292 1.00848 15.2967 0.956591 14.5423L0.939095 14.2411C0.925158 13.8392 0.945619 13.4404 0.986541 13.0481L3.91187 11.8566L5.81415 12.767L6.21685 16.1128L4.63957 17.5163ZM4.8937 6.8229C5.7329 6.29833 6.6489 5.93537 7.61828 5.73728L9.67624 8.17333L9.3459 10.5266L6.22041 11.9749L4.303 11.0574L4.04027 7.47765C4.03938 7.46401 4.03315 7.45215 4.03108 7.43881C4.30745 7.21373 4.59539 7.00646 4.8937 6.8229ZM5.44229 21.3612L5.20951 18.2004L6.79064 16.7939L10.1907 17.4656L10.9164 19.372L9.10215 22.2962C8.96129 22.2932 8.82044 22.287 8.68077 22.2763C7.53347 22.195 6.44577 21.8855 5.44229 21.3612ZM15.3131 19.7498L11.6707 18.8543L11.0012 17.0946L12.6861 14.0744L15.1672 13.8327L17.3017 16.3607C16.923 17.6269 16.2407 18.7911 15.3131 19.7498Z"/>
</svg>
