<svg width="19" height="19" viewBox="0 0 19 19" fill="none" xmlns="http://www.w3.org/2000/svg">
<path d="M13.65 16.85C13.6437 17.1297 13.6933 17.4078 13.7959 17.668C13.8986 17.9282 14.0521 18.1653 14.2477 18.3654C14.4432 18.5654 14.6767 18.7244 14.9345 18.8329C15.1923 18.9415 15.4692 18.9975 15.7489 18.9975C16.0287 18.9976 16.3056 18.9418 16.5634 18.8334C16.8213 18.7249 17.0549 18.5661 17.2505 18.3661C17.4462 18.1662 17.5999 17.9292 17.7026 17.669C17.8054 17.4088 17.8551 17.1308 17.8489 16.8511C17.8368 16.3024 17.6104 15.7803 17.2181 15.3965C16.8258 15.0126 16.2988 14.7977 15.75 14.7975C15.2012 14.7974 14.6741 15.0121 14.2816 15.3957C13.8891 15.7793 13.6624 16.3014 13.65 16.85ZM3.15 16.85C3.15 17.407 3.37125 17.9411 3.76508 18.335C4.1589 18.7288 4.69305 18.95 5.25 18.95C5.80695 18.95 6.3411 18.7288 6.73492 18.335C7.12875 17.9411 7.35 17.407 7.35 16.85C7.35 16.2931 7.12875 15.759 6.73492 15.3651C6.3411 14.9713 5.80695 14.75 5.25 14.75C4.69305 14.75 4.1589 14.9713 3.76508 15.3651C3.37125 15.759 3.15 16.2931 3.15 16.85ZM6.87435 11.7806L18.4957 8.46055C18.6094 8.42265 18.7089 8.35118 18.781 8.25557C18.8532 8.15997 18.8947 8.04472 18.9 7.92505V2.15005H4.2V0.470049C4.2 0.239049 4.00995 0.0500488 3.78105 0.0500488H0.41895C0.307826 0.0506027 0.201428 0.0950638 0.122949 0.173739C0.0444703 0.252415 0.000275739 0.358924 0 0.470049L0 2.15005H2.1L4.1055 11.5549L4.2 12.545V14.2765C4.2 14.5064 4.389 14.6965 4.62 14.6965H18.48C18.711 14.6965 18.9 14.5054 18.9 14.2765V12.65H7.0896C5.8821 12.65 5.8569 12.0715 6.87435 11.7806Z" fill="#7E8888"/>
</svg>
