<svg viewBox="0 0 1920 1080" fill="none" xmlns="http://www.w3.org/2000/svg">
<a href="#"> <path class="render-house" d="M812.368 737.893H808.868V741.393V876.5H472.153H283.27V712.768V709.823L280.368 709.32L263.019 706.308V564.118V562.236L262.169 561.674L423.306 426.5H467.078L818.994 533.067V535.438L810.302 538.181L807.856 538.953V541.519V549.602L806.843 550.607V552.065V730.345V733.453L809.929 733.821L819.5 734.96V737.893H812.368Z" stroke="#C58A60" stroke-width="7"/></a>
<a href="#"> <path class="render-house" d="M969.509 270.187L969.509 269.809L1004.9 251.913L1529.49 178.168V656.264L1506.34 662.609L1503.77 663.314V665.984V876.5H968.506L969.509 270.187Z" stroke="#C58A60" stroke-width="7"/></a>
<a href="#"> <path class="render-house" d="M811 876.5V741.373H818.5H822V737.873V737.374V734.268L818.916 733.899L809.5 732.772V582.957L967.5 504.641V876.5H811Z" stroke="#C58A60" stroke-width="7"/></a>
<a href="#"> <path class="render-house" d="M1527.5 799.956H1534.5V873.5H1510.5V668.235L1533.43 661.897L1536 661.188V658.524V511.174L1702.5 540.642V698.943L1660.37 727.218C1656.2 726.144 1648.72 724.612 1643.25 725.006C1639.27 725.291 1631.88 727.32 1625.46 729.306C1619.03 731.299 1612.74 733.521 1610.93 734.432L1610.9 734.444L1610.88 734.457C1600.6 739.835 1587.87 749.032 1581.67 754.582L1580.5 755.626V757.19V783.603L1527.28 786.922L1524 787.126V790.415V796.456V799.956H1527.5Z" stroke="#C58A60" stroke-width="7"/></a>
<path style="pointer-events:none;" d="M552.032 643.704C554.944 644.227 557.277 645.552 559.032 647.68C560.824 649.808 561.72 652.347 561.72 655.296C561.72 658.88 560.488 661.848 558.024 664.2C555.597 666.515 552.555 667.672 548.896 667.672C545.349 667.672 542.4 666.571 540.048 664.368C537.733 662.128 536.501 659.253 536.352 655.744H542.4C542.512 657.611 543.165 659.123 544.36 660.28C545.555 661.4 547.067 661.96 548.896 661.96C550.837 661.96 552.443 661.325 553.712 660.056C554.981 658.749 555.616 657.107 555.616 655.128C555.616 654.157 555.429 653.261 555.056 652.44C554.683 651.581 554.179 650.853 553.544 650.256C552.909 649.659 552.144 649.211 551.248 648.912C550.352 648.576 549.381 648.408 548.336 648.408H543.632V647.232L551.36 635.248H537.472V629.76H560.264V630.992L552.032 643.704Z" fill="#EAF1FF"/>
<path style="pointer-events:none;" d="M1261.01 529.12V534.44H1257.42V542H1251.6V534.44H1233.06V533.208L1245.78 504.76H1251.94L1241.07 529.12H1251.71L1252.72 518.76H1257.42V529.12H1261.01Z" fill="#EAF1FF"/>
<path style="pointer-events:none;" d="M886.552 697.288H900.44V703H874.96V701.376C880.523 695.291 884.536 690.755 887 687.768C889.501 684.744 891.163 682.448 891.984 680.88C892.805 679.312 893.216 677.763 893.216 676.232C893.216 675.149 892.973 674.197 892.488 673.376C892.04 672.555 891.387 671.92 890.528 671.472C889.707 670.987 888.736 670.744 887.616 670.744C885.861 670.744 884.443 671.267 883.36 672.312C882.315 673.32 881.792 674.645 881.792 676.288V677.128H875.744V676.288C875.744 672.928 876.827 670.221 878.992 668.168C881.157 666.077 884.013 665.032 887.56 665.032C891.032 665.032 893.851 666.077 896.016 668.168C898.219 670.259 899.32 672.947 899.32 676.232C899.32 677.949 899.003 679.611 898.368 681.216C897.771 682.821 896.539 684.893 894.672 687.432C892.843 689.933 890.136 693.219 886.552 697.288Z" fill="#EAF1FF"/>
<path style="pointer-events:none;" d="M1583.62 665.76H1596.17V703H1590.18V671.192H1583.62V665.76Z" fill="#EAF1FF"/>
</svg>
